<svg width="31" height="31" viewBox="0 0 31 31" fill="none" xmlns="http://www.w3.org/2000/svg">
<path d="M9.06238 6.29249V5.6V3.625C9.06238 3.57527 9.08214 3.52758 9.1173 3.49242L8.58697 2.96209L9.1173 3.49242C9.15246 3.45725 9.20015 3.4375 9.24988 3.4375C9.29961 3.4375 9.3473 3.45725 9.38247 3.49242C9.41763 3.52758 9.43738 3.57527 9.43738 3.625V5.51625V6.28106L10.202 6.26611C11.0245 6.25003 11.9491 6.25 12.9999 6.25H17.9999C19.0507 6.25 19.9753 6.25003 20.7977 6.26611L21.5624 6.28106V5.51625V3.625C21.5624 3.57527 21.5821 3.52758 21.6173 3.49242C21.6525 3.45725 21.7002 3.4375 21.7499 3.4375C21.7996 3.4375 21.8473 3.45726 21.8825 3.49242C21.9176 3.52758 21.9374 3.57527 21.9374 3.625V5.59875V6.29072L22.6271 6.34633C24.3739 6.48714 25.3297 6.81953 26.0042 7.49495L26.0049 7.49571C26.5678 8.05779 26.8924 8.81438 27.0665 10.0625H3.93334C4.10742 8.81499 4.43205 8.05769 4.99483 7.49571L4.99559 7.49495C5.67 6.81957 6.62451 6.48718 8.37209 6.34762L9.06238 6.29249Z" fill="white" stroke="#9DB2CE" stroke-width="1.5"/>
<path d="M26.0049 26.0044L26.0044 26.0049C25.4352 26.5746 24.6647 26.9016 23.3863 27.0736C22.0863 27.2484 20.3781 27.25 18 27.25H13C10.6219 27.25 8.91367 27.2484 7.61372 27.0736C6.33534 26.9016 5.56481 26.5746 4.99556 26.0049L4.9951 26.0044C4.42536 25.4352 4.09837 24.6647 3.92643 23.3863C3.75159 22.0863 3.75 20.3781 3.75 18V15.5C3.75 14.7513 3.75001 14.0667 3.75584 13.4375H27.2442C27.25 14.0667 27.25 14.7513 27.25 15.5V18C27.25 20.3781 27.2484 22.0863 27.0736 23.3863C26.9016 24.6647 26.5746 25.4352 26.0049 26.0044ZM7.83579 18.1642L8.36612 17.6339L7.83579 18.1642C8.21086 18.5393 8.71957 18.75 9.25 18.75C9.78043 18.75 10.2891 18.5393 10.6642 18.1642L10.1339 17.6339L10.6642 18.1642C11.0393 17.7891 11.25 17.2804 11.25 16.75C11.25 16.2196 11.0393 15.7109 10.6642 15.3358C10.2891 14.9607 9.78043 14.75 9.25 14.75C8.71957 14.75 8.21086 14.9607 7.83579 15.3358C7.46071 15.7109 7.25 16.2196 7.25 16.75C7.25 17.2804 7.46071 17.7891 7.83579 18.1642ZM14.0858 18.1642L14.6161 17.6339L14.0858 18.1642C14.4609 18.5393 14.9696 18.75 15.5 18.75C16.0304 18.75 16.5391 18.5393 16.9142 18.1642L16.3839 17.6339L16.9142 18.1642C17.2893 17.7891 17.5 17.2804 17.5 16.75C17.5 16.2196 17.2893 15.7109 16.9142 15.3358C16.5391 14.9607 16.0304 14.75 15.5 14.75C14.9696 14.75 14.4609 14.9607 14.0858 15.3358C13.7107 15.7109 13.5 16.2196 13.5 16.75C13.5 17.2804 13.7107 17.7891 14.0858 18.1642ZM10.6642 20.3358L10.1339 20.8661L10.6642 20.3358C10.2891 19.9607 9.78043 19.75 9.25 19.75C8.71957 19.75 8.21086 19.9607 7.83579 20.3358L8.36612 20.8661L7.83579 20.3358C7.46071 20.7109 7.25 21.2196 7.25 21.75C7.25 22.2804 7.46071 22.7891 7.83579 23.1642C8.21086 23.5393 8.71957 23.75 9.25 23.75C9.78043 23.75 10.2891 23.5393 10.6642 23.1642C11.0393 22.7891 11.25 22.2804 11.25 21.75C11.25 21.2196 11.0393 20.7109 10.6642 20.3358ZM14.0858 20.3358L14.5808 20.8308L14.0858 20.3358C13.7107 20.7109 13.5 21.2196 13.5 21.75C13.5 22.2804 13.7107 22.7891 14.0858 23.1642C14.4609 23.5393 14.9696 23.75 15.5 23.75C16.0304 23.75 16.5391 23.5393 16.9142 23.1642C17.2893 22.7891 17.5 22.2804 17.5 21.75C17.5 21.2196 17.2893 20.7109 16.9142 20.3358L16.4192 20.8308L16.9142 20.3358C16.5391 19.9607 16.0304 19.75 15.5 19.75C14.9696 19.75 14.4609 19.9607 14.0858 20.3358ZM21.75 18.75C22.2804 18.75 22.7891 18.5393 23.1642 18.1642C23.5393 17.7891 23.75 17.2804 23.75 16.75C23.75 16.2196 23.5393 15.7109 23.1642 15.3358C22.7891 14.9607 22.2804 14.75 21.75 14.75C21.2196 14.75 20.7109 14.9607 20.3358 15.3358C19.9607 15.7109 19.75 16.2196 19.75 16.75C19.75 17.2804 19.9607 17.7891 20.3358 18.1642C20.7109 18.5393 21.2196 18.75 21.75 18.75ZM21.75 23.75C22.2804 23.75 22.7891 23.5393 23.1642 23.1642C23.5393 22.7891 23.75 22.2804 23.75 21.75C23.75 21.2196 23.5393 20.7109 23.1642 20.3358C22.7891 19.9607 22.2804 19.75 21.75 19.75C21.2196 19.75 20.7109 19.9607 20.3358 20.3358C19.9607 20.7109 19.75 21.2196 19.75 21.75C19.75 22.2804 19.9607 22.7891 20.3358 23.1642C20.7109 23.5393 21.2196 23.75 21.75 23.75Z" fill="white" stroke="#9DB2CE" stroke-width="1.5"/>
</svg>
