<svg width="20" height="20" viewBox="0 0 20 20" fill="none" xmlns="http://www.w3.org/2000/svg">
<path d="M19.7498 10.2242C19.7498 9.56148 19.695 8.89514 19.5781 8.24313H10.1963V11.9976H15.5688C15.3459 13.2084 14.6295 14.2796 13.5806 14.9603V17.3963H16.7858C18.668 15.6982 19.7498 13.1905 19.7498 10.2242Z" fill="#4285F4"/>
<path d="M10.1965 19.75C12.8791 19.75 15.1414 18.8866 16.7897 17.3963L13.5845 14.9603C12.6927 15.5549 11.5414 15.8917 10.2001 15.8917C7.60527 15.8917 5.4051 14.1757 4.61567 11.8686H1.30811V14.3799C2.99661 17.6722 6.43574 19.75 10.1965 19.75Z" fill="#34A853"/>
<path d="M4.61196 11.8686C4.19532 10.6577 4.19532 9.34654 4.61196 8.13567V5.62436H1.30805C-0.102685 8.37927 -0.102685 11.625 1.30805 14.3799L4.61196 11.8686Z" fill="#FBBC04"/>
<path d="M10.1965 4.10897C11.6145 4.08747 12.9851 4.61051 14.0121 5.57061L16.8518 2.78704C15.0537 1.13194 12.6671 0.221997 10.1965 0.250657C6.43574 0.250657 2.99661 2.32848 1.30811 5.62435L4.61201 8.13565C5.39779 5.82497 7.60161 4.10897 10.1965 4.10897Z" fill="#EA4335"/>
</svg>
