<svg width="30" height="30" viewBox="0 0 30 30" fill="none" xmlns="http://www.w3.org/2000/svg">
<g clip-path="url(#clip0_81_8470)">
<path d="M8.08223 1.76534C6.91956 1.78819 5.72354 2.58518 5.33184 4.04681C3.20606 1.9212 0.0203187 3.57419 0.702936 6.48401C1.39587 9.43731 6.53594 10.2655 7.39727 11.7575C7.39727 9.87466 11.2938 6.92218 10.5725 3.83997C10.2368 2.4063 9.1743 1.74384 8.08223 1.76534ZM13.3867 9.55104C11.3217 9.59382 9.35348 10.8947 8.71751 13.6122C7.30481 19.6489 14.9358 25.4317 14.9358 29.1196C16.6233 26.1971 26.6893 24.5749 28.0462 18.7906C29.3833 13.0909 23.1463 9.85503 18.9825 14.0189C18.1921 11.0691 15.7271 9.50247 13.3868 9.5511L13.3867 9.55104Z" fill="#DD6F31"/>
</g>
<defs>
<clipPath id="clip0_81_8470">
<rect width="30" height="30" fill="white"/>
</clipPath>
</defs>
</svg>
