<svg width="31" height="31" viewBox="0 0 31 31" fill="none" xmlns="http://www.w3.org/2000/svg">
<g clip-path="url(#clip0_81_7502)">
<path d="M8.597 3.0152L8.59697 3.0152C7.7659 3.03153 6.86093 3.60414 6.55628 4.74095L6.22005 5.99559L5.30153 5.07716C4.45755 4.23324 3.48236 4.19076 2.81203 4.54161C2.15069 4.88775 1.66677 5.67734 1.93311 6.81269L8.597 3.0152ZM8.597 3.0152C9.34059 3.00055 10.0885 3.42699 10.3422 4.51092C10.6228 5.71009 10.0188 6.96815 9.12668 8.3395C8.97287 8.57593 8.80502 8.82374 8.63635 9.07276C8.3571 9.48505 8.0756 9.90066 7.8518 10.2735C7.73332 10.4708 7.61599 10.679 7.51207 10.8943M8.597 3.0152L7.51207 10.8943M7.51207 10.8943C7.33127 10.7777 7.1392 10.6668 6.94348 10.5604C6.59731 10.3723 6.17318 10.1652 5.74799 9.95771C5.4323 9.80362 5.11603 9.64925 4.83065 9.50212C4.10579 9.12839 3.43606 8.73433 2.9127 8.27852C2.39351 7.82636 2.05886 7.34864 1.93311 6.81272L7.51207 10.8943ZM18.758 14.713L19.0943 15.9678L20.0128 15.0492C21.876 13.186 24.1236 13.03 25.7294 13.8704C27.3263 14.7061 28.4096 16.5888 27.816 19.1193L28.5462 19.2906L27.816 19.1193C27.5242 20.363 26.7572 21.4212 25.6699 22.3682C24.5785 23.3189 23.205 24.1224 21.7712 24.8617C21.1752 25.169 20.5464 25.4756 19.9284 25.7771C19.1168 26.1728 18.3236 26.5596 17.6472 26.9272C17.0311 27.2621 16.4563 27.6089 15.973 27.9777C15.9411 28.0021 15.9095 28.0266 15.8781 28.0514C15.6424 27.4 15.2933 26.7445 14.9086 26.1037C14.4777 25.3859 13.9501 24.6071 13.4136 23.8154C13.0806 23.324 12.7443 22.8276 12.4256 22.3377C10.6862 19.6638 9.32143 16.9596 9.94777 14.2831C10.5028 11.9114 12.1632 10.8461 13.8793 10.8014L13.9024 10.8009C15.8994 10.7594 18.0575 12.0985 18.758 14.713Z" stroke="#9DB2CE" stroke-width="1.5"/>
</g>
<defs>
<clipPath id="clip0_81_7502">
<rect width="30" height="30" fill="white" transform="translate(0.5 0.5)"/>
</clipPath>
</defs>
</svg>
