<svg width="331" height="240" viewBox="0 0 331 240" fill="none" xmlns="http://www.w3.org/2000/svg">
<g clip-path="url(#clip0_81_6775)">
<path d="M279.932 2.82214V92.2923C279.662 92.0181 279.397 91.744 279.127 91.4698C278.962 91.302 278.797 91.1344 278.631 90.967C267.688 79.9503 254.282 71.7026 239.522 66.9073C224.762 62.112 209.073 60.9071 193.755 63.3924C182.676 65.1834 172.265 67.9267 166.04 72.1274C119.219 103.72 66.0956 73.6137 51.2213 65.1956C50.9516 65.0464 50.6818 64.8933 50.416 64.736V2.82215C50.416 2.07367 50.713 1.35585 51.2416 0.826596C51.7702 0.29734 52.4871 3.8147e-06 53.2346 3.8147e-06H277.114C277.861 3.81469e-06 278.578 0.297336 279.107 0.826589C279.635 1.35584 279.932 2.07367 279.932 2.82214Z" fill="#3F3D56"/>
<path d="M166.583 137.138L160.538 138.507C159.837 142.493 159.965 158.684 159.965 158.684L159.445 174.176C159.17 174.571 159.003 175.031 158.962 175.511C158.921 175.99 159.007 176.472 159.211 176.908C159.415 177.343 159.73 177.718 160.125 177.993C160.519 178.268 160.979 178.434 161.458 178.475C161.937 178.515 162.418 178.429 162.853 178.224C163.288 178.019 163.661 177.703 163.935 177.308C164.21 176.912 164.375 176.452 164.415 175.972C164.455 175.493 164.368 175.011 164.163 174.576L164.949 155.469L166.583 137.138Z" fill="#FFB6B6"/>
<path d="M159.598 121.555C160.537 121.354 161.509 121.362 162.445 121.58C163.381 121.797 164.258 122.219 165.013 122.814C165.768 123.409 166.382 124.164 166.813 125.024C167.243 125.884 167.479 126.829 167.503 127.79L167.603 131.707C167.603 131.707 169.133 151.668 167.727 155.567L165.731 166.824L159.321 167.643L159.005 155.8C159.005 155.8 160.898 142.726 158.844 140.604C157.585 139.305 155.577 133.925 154.569 129.308C154.39 128.469 154.378 127.602 154.533 126.757C154.689 125.913 155.01 125.108 155.477 124.387C155.944 123.667 156.548 123.046 157.256 122.56C157.963 122.074 158.758 121.733 159.598 121.555Z" fill="#DD6F31"/>
<path d="M114.601 227.347C114.555 227.347 114.51 227.332 114.472 227.305C114.434 227.278 114.406 227.24 114.391 227.197L105.197 160.96L86.7806 227.25C86.7471 227.299 86.6958 227.332 86.638 227.342C86.5801 227.353 86.5205 227.34 86.4721 227.307C86.4237 227.273 86.3905 227.222 86.3797 227.164C86.369 227.106 86.3816 227.047 86.4148 226.998L105.08 160.345C105.104 160.311 105.136 160.284 105.174 160.268C105.211 160.251 105.252 160.245 105.293 160.25C105.334 160.256 105.372 160.273 105.404 160.299C105.436 160.325 105.46 160.36 105.473 160.398L114.811 227.052C114.823 227.085 114.826 227.121 114.821 227.156C114.816 227.191 114.802 227.225 114.782 227.253C114.761 227.282 114.734 227.306 114.703 227.322C114.671 227.338 114.637 227.347 114.601 227.347Z" fill="#E6E6E6"/>
<path d="M101.374 227.347C101.342 227.347 101.311 227.34 101.281 227.327C101.252 227.314 101.227 227.294 101.206 227.27C101.185 227.246 101.169 227.218 101.16 227.187C101.151 227.157 101.149 227.124 101.154 227.093L105.043 160.439C105.052 160.381 105.083 160.328 105.13 160.293C105.177 160.257 105.236 160.242 105.295 160.251C105.353 160.259 105.406 160.29 105.441 160.337C105.476 160.385 105.492 160.444 105.483 160.502L101.594 227.156C101.586 227.209 101.56 227.257 101.519 227.292C101.479 227.327 101.427 227.347 101.374 227.347Z" fill="#E6E6E6"/>
<path d="M135.265 147.684C135.413 148.268 135.375 148.883 135.157 149.443C134.939 150.004 134.552 150.483 134.05 150.813C133.897 150.915 133.734 151.001 133.564 151.07L92.2637 168.093C91.5549 168.385 90.7595 168.383 90.0521 168.088C89.3448 167.793 88.7833 167.229 88.4912 166.52C88.439 166.393 88.396 166.263 88.3624 166.13C88.1917 165.455 88.2697 164.741 88.5821 164.12C88.8946 163.498 89.4205 163.01 90.0635 162.745L131.364 145.721C131.374 145.717 131.384 145.714 131.394 145.711C131.776 145.558 132.186 145.489 132.597 145.507C133.008 145.526 133.41 145.632 133.776 145.819C134.143 146.006 134.466 146.269 134.722 146.591C134.979 146.912 135.164 147.285 135.265 147.684Z" fill="#E6E6E6"/>
<path d="M92.8441 157.147C93.1582 157.067 93.4912 157.115 93.7699 157.281C94.0485 157.447 94.2499 157.716 94.3298 158.031L95.1514 161.265C95.2313 161.58 95.1831 161.913 95.0175 162.192C94.8518 162.471 94.5823 162.673 94.2682 162.753C93.9541 162.833 93.6211 162.785 93.3424 162.619C93.0638 162.453 92.8624 162.183 92.7825 161.868L91.9609 158.634C91.9214 158.478 91.9128 158.316 91.9358 158.157C91.9588 157.998 92.0128 157.845 92.0948 157.707C92.1768 157.569 92.2852 157.448 92.4138 157.352C92.5423 157.256 92.6886 157.186 92.8441 157.147Z" fill="#E6E6E6"/>
<path d="M90.366 157.319L95.1038 156.112C95.3037 156.061 95.5156 156.092 95.6929 156.197C95.8702 156.303 95.9984 156.475 96.0492 156.675C96.1001 156.875 96.0694 157.087 95.964 157.265C95.8586 157.442 95.6871 157.571 95.4872 157.621L90.7494 158.828C90.6505 158.853 90.5475 158.859 90.4464 158.844C90.3453 158.829 90.2481 158.795 90.1603 158.743C90.0725 158.69 89.9959 158.621 89.9347 158.539C89.8736 158.457 89.8292 158.364 89.804 158.265C89.7532 158.065 89.7838 157.853 89.8892 157.675C89.9946 157.498 90.1661 157.369 90.366 157.319Z" fill="#E6E6E6"/>
<path d="M88.5405 166.728C88.2775 166.186 88.1895 165.577 88.2886 164.983C88.3878 164.39 88.6692 163.842 89.0937 163.416C89.7881 163.43 90.4652 163.635 91.0505 164.01C91.6358 164.384 92.1067 164.913 92.4114 165.537C92.7663 166.26 92.879 167.077 92.7328 167.869C92.39 168.096 92.0027 168.248 91.5966 168.314C91.1906 168.38 90.7752 168.358 90.3782 168.25C89.9813 168.142 89.612 167.95 89.2951 167.688C88.9781 167.425 88.7209 167.098 88.5405 166.728Z" fill="#CCCCCC"/>
<path d="M156.088 230.854C156.1 230.534 154.407 230.208 152.305 230.126C150.204 230.044 148.49 230.237 148.478 230.557C148.465 230.877 150.159 231.203 152.26 231.285C154.362 231.367 156.075 231.174 156.088 230.854Z" fill="#E6E6E6"/>
<path d="M180.191 233.102C180.204 232.781 178.51 232.455 176.409 232.373C174.307 232.291 172.594 232.484 172.581 232.804C172.569 233.125 174.262 233.451 176.364 233.533C178.465 233.615 180.179 233.422 180.191 233.102Z" fill="#3F3D56"/>
<path d="M146.332 234.61C146.344 234.29 144.651 233.964 142.549 233.882C140.448 233.8 138.734 233.993 138.721 234.313C138.709 234.633 140.402 234.959 142.504 235.041C144.605 235.123 146.319 234.93 146.332 234.61Z" fill="#FF6584"/>
<path d="M172.326 238.237C172.339 237.917 170.645 237.591 168.544 237.509C166.442 237.427 164.728 237.62 164.716 237.94C164.703 238.26 166.397 238.586 168.498 238.668C170.6 238.75 172.314 238.557 172.326 238.237Z" fill="#FF6584"/>
<path d="M134.484 235.483C134.485 235.195 133.729 234.957 132.795 234.953C131.861 234.948 131.102 235.178 131.101 235.466C131.099 235.754 131.856 235.992 132.79 235.996C133.724 236.001 134.483 235.771 134.484 235.483Z" fill="#E6E6E6"/>
<path d="M143.836 237.643C143.837 237.355 143.081 237.118 142.147 237.113C141.213 237.109 140.454 237.338 140.453 237.627C140.451 237.915 141.208 238.152 142.142 238.156C143.076 238.161 143.835 237.931 143.836 237.643Z" fill="#E6E6E6"/>
<path d="M128.546 238.455C128.547 238.167 127.791 237.929 126.857 237.925C125.923 237.92 125.164 238.15 125.163 238.438C125.161 238.727 125.918 238.964 126.852 238.968C127.786 238.973 128.545 238.743 128.546 238.455Z" fill="#3F3D56"/>
<path d="M160.69 234.763C160.691 234.475 159.935 234.238 159.001 234.233C158.067 234.229 157.308 234.459 157.307 234.747C157.305 235.035 158.062 235.272 158.996 235.277C159.93 235.281 160.689 235.051 160.69 234.763Z" fill="#E6E6E6"/>
<path d="M149.775 232.662C149.776 232.374 149.02 232.137 148.086 232.133C147.152 232.128 146.393 232.358 146.392 232.646C146.39 232.934 147.147 233.171 148.081 233.176C149.015 233.18 149.774 232.951 149.775 232.662Z" fill="#FF6584"/>
<path d="M167.92 231.5C167.921 231.212 167.165 230.975 166.231 230.97C165.297 230.966 164.538 231.196 164.537 231.484C164.535 231.772 165.292 232.009 166.226 232.014C167.16 232.018 167.919 231.788 167.92 231.5Z" fill="#3F3D56"/>
<path d="M154.13 237.742C154.131 237.454 153.375 237.217 152.441 237.213C151.507 237.208 150.748 237.438 150.747 237.726C150.745 238.014 151.502 238.252 152.436 238.256C153.37 238.261 154.129 238.031 154.13 237.742Z" fill="#3F3D56"/>
<path d="M277.114 0H53.2346C52.4873 0.000821695 51.7709 0.298419 51.2425 0.827496C50.7141 1.35657 50.4168 2.07392 50.416 2.82215V237.06C50.4176 237.808 50.7151 238.525 51.2434 239.054C51.7716 239.583 52.4876 239.881 53.2346 239.883H277.114C277.861 239.882 278.577 239.584 279.106 239.055C279.634 238.526 279.931 237.809 279.932 237.06V2.82215C279.931 2.07392 279.634 1.35657 279.106 0.827496C278.577 0.298419 277.861 0.000822761 277.114 0ZM279.127 237.06C279.127 237.595 278.914 238.108 278.537 238.486C278.159 238.864 277.647 239.076 277.114 239.076H53.2346C52.7007 239.076 52.1888 238.864 51.8112 238.486C51.4337 238.108 51.2215 237.595 51.2213 237.06V2.82215C51.2222 2.28779 51.4346 1.77557 51.812 1.39772C52.1894 1.01987 52.7009 0.807206 53.2346 0.806328H277.114C277.647 0.807206 278.159 1.01987 278.536 1.39772C278.914 1.77557 279.126 2.28779 279.127 2.82215V237.06ZM206.044 0.399134C205.819 0.262059 205.593 0.129012 205.368 0H181.836C181.667 0.266088 181.506 0.536208 181.349 0.806328H206.721C206.495 0.66924 206.27 0.536222 206.044 0.399134ZM50.416 80.0119V86.0191C50.5167 86.0271 50.6214 86.0271 50.722 86.0312L50.5207 97.5778L50.416 97.5213V98.6582L50.5006 98.7026L50.416 103.545V120.236H51.2213V77.2906C50.9958 78.1614 50.7274 79.0685 50.416 80.0119ZM206.044 0.399134C205.819 0.262059 205.593 0.129012 205.368 0H181.836C181.667 0.266088 181.506 0.536208 181.349 0.806328H206.721C206.495 0.66924 206.27 0.536222 206.044 0.399134Z" fill="#3F3D56"/>
<path d="M249.052 23.7141C251.276 23.7141 253.079 21.9091 253.079 19.6825C253.079 17.4559 251.276 15.6508 249.052 15.6508C246.828 15.6508 245.025 17.4559 245.025 19.6825C245.025 21.9091 246.828 23.7141 249.052 23.7141Z" fill="#DD6F31"/>
<path d="M197.511 37.4217C197.956 37.4217 198.317 37.0607 198.317 36.6153C198.317 36.17 197.956 35.809 197.511 35.809C197.067 35.809 196.706 36.17 196.706 36.6153C196.706 37.0607 197.067 37.4217 197.511 37.4217Z" fill="#DD6F31"/>
<path d="M156.44 53.1451C156.885 53.1451 157.245 52.7841 157.245 52.3387C157.245 51.8934 156.885 51.5324 156.44 51.5324C155.995 51.5324 155.635 51.8934 155.635 52.3387C155.635 52.7841 155.995 53.1451 156.44 53.1451Z" fill="#DD6F31"/>
<path d="M110.94 32.5837C111.384 32.5837 111.745 32.2227 111.745 31.7774C111.745 31.3321 111.384 30.9711 110.94 30.9711C110.495 30.9711 110.134 31.3321 110.134 31.7774C110.134 32.2227 110.495 32.5837 110.94 32.5837Z" fill="#FF6584"/>
<path d="M130.267 12.4255C130.712 12.4255 131.073 12.0645 131.073 11.6192C131.073 11.1739 130.712 10.8129 130.267 10.8129C129.822 10.8129 129.462 11.1739 129.462 11.6192C129.462 12.0645 129.822 12.4255 130.267 12.4255Z" fill="white"/>
<path d="M264.756 7.99071C265.2 7.99071 265.561 7.62971 265.561 7.18438C265.561 6.73906 265.2 6.37806 264.756 6.37806C264.311 6.37806 263.95 6.73906 263.95 7.18438C263.95 7.62971 264.311 7.99071 264.756 7.99071Z" fill="white"/>
<path d="M223.282 21.6983C223.727 21.6983 224.087 21.3373 224.087 20.892C224.087 20.4466 223.727 20.0856 223.282 20.0856C222.837 20.0856 222.477 20.4466 222.477 20.892C222.477 21.3373 222.837 21.6983 223.282 21.6983Z" fill="white"/>
<path d="M270.796 35.0027C271.24 35.0027 271.601 34.6417 271.601 34.1964C271.601 33.751 271.24 33.39 270.796 33.39C270.351 33.39 269.99 33.751 269.99 34.1964C269.99 34.6417 270.351 35.0027 270.796 35.0027Z" fill="white"/>
<path d="M129.462 48.3071C129.907 48.3071 130.267 47.9461 130.267 47.5008C130.267 47.0554 129.907 46.6944 129.462 46.6944C129.017 46.6944 128.657 47.0554 128.657 47.5008C128.657 47.9461 129.017 48.3071 129.462 48.3071Z" fill="white"/>
<path d="M67.8551 45.8881C68.2999 45.8881 68.6604 45.5271 68.6604 45.0818C68.6604 44.6365 68.2999 44.2755 67.8551 44.2755C67.4104 44.2755 67.0498 44.6365 67.0498 45.0818C67.0498 45.5271 67.4104 45.8881 67.8551 45.8881Z" fill="#FF6584"/>
<path d="M98.0704 54.3896L97.311 54.4557L97.1394 55.1996L96.8414 54.4969L96.082 54.5634L96.6574 54.0627L96.3595 53.3599L97.013 53.753L97.5884 53.2523L97.4168 53.9961L98.0704 54.3896Z" fill="white"/>
<path d="M195.111 11.6543L194.352 11.7204L194.18 12.4642L193.882 11.7615L193.123 11.828L193.698 11.3273L193.4 10.6246L194.054 11.0177L194.629 10.5169L194.458 11.2608L195.111 11.6543Z" fill="white"/>
<path d="M241.015 44.3105L240.255 44.3767L240.084 45.1205L239.786 44.4178L239.026 44.4843L239.602 43.9836L239.304 43.2809L239.957 43.6739L240.533 43.1732L240.361 43.917L241.015 44.3105Z" fill="white"/>
<path d="M155.65 35.0378L154.891 35.1039L154.719 35.8477L154.422 35.145L153.662 35.2115L154.238 34.7108L153.94 34.0081L154.593 34.4012L155.168 33.9004L154.997 34.6443L155.65 35.0378Z" fill="white"/>
<path d="M119.814 70.9194L119.055 70.9855L118.883 71.7293L118.585 71.0266L117.826 71.0931L118.401 70.5924L118.103 69.8897L118.757 70.2828L119.332 69.782L119.161 70.5259L119.814 70.9194Z" fill="white"/>
<path d="M271.617 70.113L270.857 70.1791L270.686 70.923L270.388 70.2203L269.628 70.2868L270.204 69.7861L269.906 69.0833L270.559 69.4764L271.135 68.9757L270.963 69.7195L271.617 70.113Z" fill="white"/>
<path d="M76.7291 23.346L75.9696 23.4121L75.7981 24.156L75.5001 23.4533L74.7407 23.5198L75.3161 23.019L75.0182 22.3163L75.6717 22.7094L76.2471 22.2087L76.0755 22.9525L76.7291 23.346Z" fill="white"/>
<path d="M165.357 144.986L166.672 124.595C166.73 123.732 167.125 122.926 167.772 122.351C168.419 121.776 169.265 121.479 170.129 121.524C170.575 121.547 171.013 121.661 171.414 121.859C171.815 122.057 172.172 122.334 172.463 122.675C172.753 123.015 172.972 123.411 173.104 123.839C173.237 124.267 173.281 124.717 173.235 125.162L171.22 146.302L170.537 159.198C171.068 159.457 171.507 159.873 171.793 160.389C172.08 160.906 172.2 161.498 172.139 162.086C172.078 162.674 171.837 163.229 171.45 163.675C171.062 164.121 170.547 164.437 169.975 164.579C169.402 164.722 168.799 164.685 168.248 164.473C167.697 164.26 167.225 163.884 166.895 163.393C166.566 162.903 166.395 162.323 166.406 161.732C166.417 161.141 166.61 160.568 166.958 160.091L165.357 144.986Z" fill="#A0616A"/>
<path d="M165.053 129.151C164.909 128.994 164.821 128.794 164.802 128.582C164.783 128.369 164.833 128.157 164.947 127.977C165.082 127.751 165.144 127.489 165.123 127.227C165.119 127.177 165.111 127.127 165.1 127.077C165.025 126.78 165.024 126.469 165.095 126.171C165.166 125.873 165.309 125.597 165.509 125.366C166.181 124.615 166.534 123.454 166.706 122.414C166.828 121.266 167.087 120.137 167.479 119.051C168.135 117.522 169.62 116.192 171.555 116.924C172.373 117.248 173.055 117.844 173.485 118.613C174.406 120.208 174.348 122.094 174.276 123.897L174.653 123.197C174.54 125.166 174.826 127.137 175.492 128.993C175.059 128.892 174.729 129.469 174.855 129.896C175.037 130.304 175.323 130.658 175.684 130.921C176.092 131.306 176.47 131.87 176.055 132.422C175.951 132.551 175.823 132.658 175.677 132.735C175.531 132.811 175.37 132.857 175.205 132.869C172.098 133.16 168.964 132.805 166.001 131.825C165.343 131.607 164.639 131.312 164.315 130.699C163.99 130.086 164.361 129.116 165.053 129.151Z" fill="#F2F2F2"/>
<path d="M192.221 233.148H195.812L197.52 219.283H192.221V233.148Z" fill="#A0616A"/>
<path d="M191.05 230.686L196.786 230.344V232.804L202.239 236.575C202.509 236.761 202.711 237.029 202.818 237.339C202.925 237.649 202.93 237.984 202.832 238.297C202.735 238.61 202.54 238.884 202.277 239.078C202.013 239.272 201.694 239.377 201.367 239.377H194.538L193.361 236.943L192.901 239.377H190.327L191.05 230.686Z" fill="#2F2E41"/>
<path d="M172.918 229.982L176.263 231.291L182.896 219L177.96 217.068L172.918 229.982Z" fill="#A0616A"/>
<path d="M172.723 227.262L178.19 229.034L177.295 231.326L181.003 236.826C181.186 237.097 181.278 237.42 181.265 237.748C181.251 238.075 181.134 238.39 180.929 238.646C180.725 238.902 180.444 239.086 180.128 239.17C179.812 239.255 179.477 239.236 179.172 239.117L172.812 236.628L172.6 233.932L171.287 236.031L168.889 235.093L172.723 227.262Z" fill="#2F2E41"/>
<path d="M175.176 143.505H191.927C191.927 143.505 198.235 188.612 198.253 188.694C198.271 188.776 194.693 190.078 196.319 191.707L197.946 193.335C199.247 194.638 196.98 199.09 196.98 199.09L199.572 225.578H188.866L183.634 170.863L190.712 197.094L181.49 225.578L174.851 221.67L173.55 218.087L176.135 215.499C176.135 215.499 176.803 211.61 176.803 209.312C176.803 207.014 174.851 208.968 176.803 207.014C177.647 206.169 180.024 195.795 180.024 195.795L172.249 170.863L170.396 159.734C169.92 156.865 170.348 153.919 171.623 151.305C172.653 149.19 173.951 146.42 175.176 143.505Z" fill="#2F2E41"/>
<path d="M174.201 115.822L175.314 112.478C175.562 111.734 176.026 111.081 176.647 110.603C177.268 110.125 178.017 109.844 178.799 109.795L179.788 109.734C180.668 109.679 181.541 109.922 182.266 110.424C182.991 110.926 183.527 111.657 183.787 112.501C184.015 113.247 184.46 113.908 185.065 114.4C185.671 114.891 186.409 115.19 187.186 115.259C190.077 115.506 194.368 116.381 194.368 119.405C194.368 123.964 189.489 136.015 190.465 136.992C191.44 137.969 193.717 141.995 192.416 143.18C192.077 143.488 192.351 144.973 192.459 146.036C192.656 147.962 179.08 143.704 175.176 144.808C171.273 145.912 173.225 137.643 172.574 136.992C171.964 136.246 171.419 135.449 170.948 134.608C170.717 134.222 170.555 133.798 170.468 133.356L169.348 127.679C169.329 127.584 169.314 127.492 169.302 127.396C169.154 126.181 168.288 118.005 171.598 116.799C175.177 115.496 174.201 115.822 174.201 115.822Z" fill="#F2F2F2"/>
<path d="M189.359 145.809L188.847 125.382C188.828 124.516 189.149 123.678 189.742 123.048C190.335 122.417 191.151 122.046 192.015 122.013C192.462 121.996 192.908 122.07 193.325 122.231C193.743 122.392 194.123 122.637 194.443 122.95C194.763 123.263 195.015 123.638 195.186 124.052C195.356 124.466 195.441 124.911 195.434 125.358L195.316 146.593L195.788 159.5C196.34 159.709 196.814 160.084 197.145 160.573C197.477 161.062 197.65 161.642 197.641 162.233C197.633 162.823 197.442 163.397 197.097 163.876C196.751 164.355 196.266 164.716 195.708 164.909C195.151 165.103 194.547 165.12 193.979 164.958C193.412 164.796 192.908 164.463 192.536 164.004C192.164 163.545 191.942 162.983 191.9 162.393C191.858 161.804 191.999 161.216 192.302 160.709L189.359 145.809Z" fill="#A0616A"/>
<path d="M187.077 129.591C186.92 129.448 186.814 129.256 186.776 129.047C186.738 128.837 186.769 128.621 186.866 128.431C186.981 128.195 187.019 127.929 186.975 127.669C186.966 127.619 186.953 127.57 186.938 127.522C186.837 127.232 186.808 126.923 186.853 126.62C186.897 126.317 187.014 126.029 187.193 125.781C187.795 124.973 188.043 123.785 188.121 122.734C188.14 121.579 188.297 120.431 188.591 119.314C189.108 117.733 190.468 116.275 192.46 116.831C193.304 117.08 194.036 117.613 194.533 118.34C195.593 119.846 195.704 121.73 195.794 123.533L196.107 122.802C196.17 124.773 196.63 126.711 197.46 128.499C197.019 128.438 196.742 129.041 196.906 129.456C197.124 129.846 197.44 130.172 197.824 130.402C198.264 130.749 198.691 131.278 198.327 131.864C198.235 132.002 198.117 132.119 197.978 132.209C197.839 132.299 197.684 132.359 197.521 132.386C194.452 132.954 191.299 132.88 188.259 132.17C187.585 132.012 186.858 131.781 186.48 131.199C186.102 130.618 186.384 129.619 187.077 129.591Z" fill="#F2F2F2"/>
<path d="M178.683 110.286C182.636 110.286 185.84 107.078 185.84 103.121C185.84 99.1639 182.636 95.956 178.683 95.956C174.731 95.956 171.527 99.1639 171.527 103.121C171.527 107.078 174.731 110.286 178.683 110.286Z" fill="#A0616A"/>
<path d="M171.922 114.008C171.925 113.169 173.025 112.73 173.823 112.993C174.617 113.257 175.19 113.934 175.829 114.473C176.469 115.016 177.357 115.448 178.123 115.111C178.849 114.788 179.142 113.928 179.686 113.35C180.343 112.737 181.202 112.388 182.099 112.367C182.081 112.286 182.063 112.204 182.052 112.122C181.979 111.691 181.961 111.251 181.998 110.815C182.181 111.188 182.421 111.531 182.71 111.83C182.892 112.02 183.093 112.19 183.311 112.337C184.211 112.407 185.116 112.339 185.996 112.135C187.046 111.824 188.03 110.895 187.948 109.797C187.882 109.393 187.721 109.01 187.479 108.681C187.236 108.351 186.919 108.084 186.554 107.901C185.848 107.493 188.322 105.679 187.585 105.332C186.876 105.019 186.238 104.565 185.709 103.999C185.179 103.432 184.77 102.764 184.506 102.035C184.29 101.387 184.232 100.698 184.335 100.023C184.438 99.3485 184.699 98.708 185.098 98.1544C185.749 98.0719 183.171 98.3817 183.789 98.1561C183.716 97.7242 183.685 98.4493 183.723 98.0142C183.906 98.3888 184.16 97.5655 184.446 97.8639C184.999 97.584 185.43 97.1117 185.659 96.5358C186.131 95.2761 185.331 95.0293 184.292 94.1743C183.503 93.5274 182.572 93.0772 181.576 92.8607C180.58 92.6443 179.547 92.6678 178.561 92.9294C177.576 93.1909 176.667 93.6831 175.909 94.3653C175.15 95.0474 174.565 95.9002 174.2 96.8532C172.625 96.0644 170.598 96.8078 169.497 98.1866C168.399 99.5669 168.067 101.411 168.054 103.174C168.035 107.128 169.404 110.963 171.922 114.008Z" fill="#2F2E41"/>
<path d="M145.948 236.199L142.596 236.198L141.001 223.253L145.948 223.254L145.948 236.199Z" fill="#FFB6B6"/>
<path d="M146.065 239.7L135.758 239.699V239.569C135.758 238.503 136.181 237.482 136.933 236.728C137.685 235.975 138.706 235.552 139.77 235.552L141.653 234.122L145.166 235.552H146.066L146.065 239.7Z" fill="#2F2E41"/>
<path d="M161.182 236.199L157.83 236.198L156.236 223.253L161.183 223.254L161.182 236.199Z" fill="#FFB6B6"/>
<path d="M161.3 239.7L150.992 239.699V239.569C150.992 238.503 151.415 237.482 152.167 236.728C152.92 235.975 153.94 235.552 155.004 235.552L156.887 234.122L160.4 235.552H161.3L161.3 239.7Z" fill="#2F2E41"/>
<path d="M137.798 153.088C137.798 153.088 132.381 159.815 133.432 161.559C134.482 163.303 136.175 162.699 134.482 164.527C132.789 166.354 132.111 166.375 133.297 167.721C134.482 169.066 135.512 198.467 135.512 198.467L140.914 229.062L146.86 229.599C146.86 229.599 147.969 225.859 147.996 224.41C148.024 222.961 148.024 224.224 148.024 221.22C148.024 218.215 146.954 220.543 147.996 217.684C149.039 214.826 150.339 206.405 147.996 202.311C145.654 198.217 147.495 201.809 147.495 201.809L149.31 174.062L152.763 202.623C152.763 202.623 152.763 212.453 154.456 219.571L154.736 229.599L162.031 229.32C162.031 229.32 163.935 226.351 163.258 222.961C162.581 219.571 165.289 217.876 165.289 216.182C165.289 214.487 165.146 198.275 165.146 198.275L163.564 164.527C163.564 164.527 164.951 156.863 161.904 153.812C158.857 150.762 137.798 153.088 137.798 153.088Z" fill="#2F2E41"/>
<path d="M144.287 117.294L148.963 112.024L156.35 112.846L161.079 119.473C166.307 120.677 167.271 124.956 166.353 130.248C164.517 140.829 159.987 148.226 162.046 153.447C165.173 161.372 163.657 167.471 156.173 166.36C148.69 165.249 131.445 157.911 136.306 153.044C141.166 148.177 139.68 141.96 139.68 141.96L140.233 127.02C139.359 122.275 139.494 117.791 144.287 117.294Z" fill="#DD6F31"/>
<path d="M142.042 135.391L136.833 132.028C133.5 134.318 122.045 145.746 122.045 145.746L110.634 156.222C110.16 156.302 109.715 156.505 109.344 156.811C108.974 157.118 108.69 157.517 108.522 157.968C108.354 158.419 108.308 158.906 108.388 159.38C108.468 159.855 108.672 160.3 108.978 160.671C109.285 161.041 109.683 161.325 110.134 161.492C110.585 161.66 111.071 161.706 111.545 161.625C112.019 161.544 112.463 161.34 112.833 161.032C113.203 160.725 113.486 160.326 113.652 159.874L127.827 147.058L142.042 135.391Z" fill="#FFB6B6"/>
<path d="M148.262 119.486C149.064 120.016 149.739 120.717 150.239 121.539C150.739 122.36 151.053 123.282 151.157 124.238C151.261 125.195 151.153 126.162 150.841 127.072C150.529 127.982 150.021 128.812 149.352 129.503L146.629 132.317C146.629 132.317 133.467 147.388 129.702 149.112L120.278 155.567L115.205 151.559L123.429 143.041C123.429 143.041 134.077 135.239 134.151 132.285C134.197 130.476 136.627 125.273 139.213 121.32C139.686 120.604 140.296 119.988 141.007 119.508C141.718 119.028 142.517 118.694 143.357 118.523C144.198 118.353 145.064 118.35 145.906 118.515C146.747 118.681 147.548 119.01 148.262 119.486Z" fill="#DD6F31"/>
<path d="M161.186 105.173C162.602 101.195 160.53 96.8212 156.558 95.4029C152.585 93.9846 148.217 96.0592 146.8 100.037C145.384 104.014 147.456 108.388 151.428 109.806C155.401 111.225 159.769 109.15 161.186 105.173Z" fill="#FFB6B6"/>
<path d="M150.039 93.8888C150.359 93.3289 150.802 92.8485 151.333 92.483C151.588 92.3336 151.872 92.2399 152.166 92.2079C152.46 92.1759 152.757 92.2064 153.038 92.2972C153.32 92.3881 153.579 92.5374 153.798 92.7354C154.018 92.9334 154.194 93.1755 154.314 93.4461C154.318 93.0786 154.41 92.7174 154.581 92.3926C155.017 92.8324 155.519 93.2003 156.07 93.4827L155.268 91.6927C158.306 91.4623 160.45 92.2989 161.414 94.5455C161.69 95.1887 162.727 95.1786 163.031 95.8493C163.335 96.5199 162.982 97.5941 162.274 97.6549C163.635 97.6309 163.217 98.7789 163.616 100.161C164.016 101.543 163.791 103.098 163.343 104.524C162.763 106.374 161.133 107.585 159.542 108.531C158.502 109.15 156.43 110.089 156.42 110.094C150.699 113.1 147.052 106.968 148.414 100.915C148.721 99.5478 149.837 98.0656 149.037 97.0407C148.415 96.2429 147.236 96.3901 146.249 96.6011C146.633 95.2741 149.294 95.0432 150.039 93.8888Z" fill="#2F2E41"/>
<path d="M245.983 231.371C245.995 231.051 244.139 230.718 241.837 230.629C239.535 230.539 237.659 230.725 237.646 231.046C237.634 231.366 239.49 231.698 241.792 231.788C244.094 231.878 245.971 231.691 245.983 231.371Z" fill="#E6E6E6"/>
<path d="M272.393 233.709C272.405 233.389 270.549 233.056 268.247 232.966C265.945 232.876 264.068 233.063 264.056 233.383C264.043 233.703 265.899 234.036 268.202 234.126C270.504 234.216 272.38 234.029 272.393 233.709Z" fill="#3F3D56"/>
<path d="M235.311 235.093C235.324 234.772 233.467 234.44 231.165 234.35C228.863 234.26 226.987 234.447 226.974 234.767C226.962 235.087 228.818 235.42 231.12 235.51C233.422 235.599 235.299 235.413 235.311 235.093Z" fill="#FF6584"/>
<path d="M263.797 238.816C263.809 238.496 261.953 238.163 259.651 238.073C257.348 237.984 255.472 238.17 255.46 238.49C255.447 238.811 257.303 239.143 259.605 239.233C261.908 239.323 263.784 239.136 263.797 238.816Z" fill="#FF6584"/>
<path d="M222.335 235.92C222.338 235.632 221.51 235.392 220.487 235.383C219.463 235.375 218.632 235.601 218.629 235.889C218.627 236.178 219.455 236.418 220.478 236.427C221.501 236.435 222.333 236.209 222.335 235.92Z" fill="#E6E6E6"/>
<path d="M232.588 238.116C232.59 237.828 231.762 237.588 230.739 237.579C229.716 237.571 228.884 237.797 228.882 238.086C228.879 238.374 229.707 238.614 230.73 238.623C231.754 238.631 232.585 238.405 232.588 238.116Z" fill="#E6E6E6"/>
<path d="M215.845 238.871C215.847 238.583 215.02 238.342 213.996 238.334C212.973 238.325 212.142 238.552 212.139 238.84C212.137 239.128 212.964 239.369 213.988 239.377C215.011 239.386 215.843 239.159 215.845 238.871Z" fill="#3F3D56"/>
<path d="M251.04 235.298C251.043 235.01 250.215 234.77 249.192 234.761C248.168 234.753 247.337 234.979 247.334 235.268C247.332 235.556 248.16 235.796 249.183 235.805C250.206 235.813 251.038 235.587 251.04 235.298Z" fill="#E6E6E6"/>
<path d="M239.077 233.157C239.079 232.869 238.252 232.628 237.228 232.619C236.205 232.611 235.373 232.838 235.371 233.126C235.369 233.414 236.196 233.654 237.22 233.663C238.243 233.671 239.075 233.445 239.077 233.157Z" fill="#FF6584"/>
<path d="M258.945 232.062C258.947 231.774 258.12 231.534 257.096 231.525C256.073 231.517 255.242 231.743 255.239 232.032C255.237 232.32 256.064 232.56 257.088 232.569C258.111 232.577 258.943 232.351 258.945 232.062Z" fill="#3F3D56"/>
<path d="M243.864 238.254C243.866 237.966 243.038 237.726 242.015 237.717C240.992 237.709 240.16 237.935 240.158 238.223C240.155 238.512 240.983 238.752 242.006 238.761C243.03 238.769 243.861 238.543 243.864 238.254Z" fill="#3F3D56"/>
<path d="M90.4546 231.257C90.4671 230.937 88.7736 230.611 86.6721 230.529C84.5706 230.447 82.8568 230.64 82.8444 230.96C82.8319 231.28 84.5254 231.606 86.6269 231.688C88.7284 231.77 90.4421 231.577 90.4546 231.257Z" fill="#E6E6E6"/>
<path d="M114.558 233.505C114.57 233.185 112.877 232.858 110.775 232.776C108.674 232.694 106.96 232.887 106.947 233.208C106.935 233.528 108.628 233.854 110.73 233.936C112.831 234.018 114.545 233.825 114.558 233.505Z" fill="#3F3D56"/>
<path d="M80.6982 235.013C80.7107 234.693 79.0172 234.367 76.9157 234.285C74.8142 234.203 73.1005 234.396 73.088 234.716C73.0755 235.036 74.769 235.362 76.8706 235.444C78.9721 235.527 80.6858 235.333 80.6982 235.013Z" fill="#FF6584"/>
<path d="M106.693 238.64C106.705 238.32 105.012 237.994 102.91 237.912C100.809 237.83 99.0951 238.023 99.0826 238.343C99.0702 238.663 100.764 238.99 102.865 239.072C104.967 239.154 106.68 238.961 106.693 238.64Z" fill="#FF6584"/>
<path d="M68.8501 235.886C68.8515 235.598 68.0953 235.361 67.161 235.356C66.2267 235.352 65.4683 235.581 65.4669 235.87C65.4655 236.158 66.2217 236.395 67.156 236.399C68.0902 236.404 68.8487 236.174 68.8501 235.886Z" fill="#E6E6E6"/>
<path d="M78.2022 238.046C78.2035 237.758 77.4473 237.521 76.513 237.516C75.5788 237.512 74.8203 237.742 74.8189 238.03C74.8175 238.318 75.5738 238.555 76.508 238.56C77.4423 238.564 78.2008 238.334 78.2022 238.046Z" fill="#E6E6E6"/>
<path d="M62.9121 238.858C62.9135 238.57 62.1573 238.333 61.223 238.328C60.2888 238.324 59.5303 238.553 59.5289 238.842C59.5275 239.13 60.2837 239.367 61.218 239.371C62.1522 239.376 62.9107 239.146 62.9121 238.858Z" fill="#3F3D56"/>
<path d="M95.0567 235.167C95.058 234.878 94.3018 234.641 93.3675 234.637C92.4333 234.632 91.6748 234.862 91.6734 235.15C91.672 235.438 92.4283 235.676 93.3625 235.68C94.2968 235.685 95.0553 235.455 95.0567 235.167Z" fill="#E6E6E6"/>
<path d="M84.1411 233.066C84.1425 232.777 83.3863 232.54 82.452 232.536C81.5178 232.531 80.7593 232.761 80.7579 233.049C80.7565 233.337 81.5127 233.575 82.447 233.579C83.3813 233.584 84.1397 233.354 84.1411 233.066Z" fill="#FF6584"/>
<path d="M102.286 231.903C102.288 231.615 101.531 231.378 100.597 231.374C99.6628 231.369 98.9043 231.599 98.9029 231.887C98.9015 232.175 99.6578 232.412 100.592 232.417C101.526 232.421 102.285 232.191 102.286 231.903Z" fill="#3F3D56"/>
<path d="M88.4966 238.146C88.498 237.858 87.7417 237.62 86.8075 237.616C85.8732 237.611 85.1147 237.841 85.1133 238.129C85.112 238.417 85.8682 238.655 86.8025 238.659C87.7367 238.664 88.4952 238.434 88.4966 238.146Z" fill="#3F3D56"/>
<path d="M276.845 205.033C271.533 205.033 266.394 203.134 262.357 199.676C261.01 198.522 259.575 196.515 258.091 193.712C257.144 191.906 256.614 189.911 256.539 187.873C256.465 185.835 256.847 183.806 257.659 181.935C256.876 182.732 256.011 183.443 255.077 184.055L254.605 184.37L254.578 183.803C254.56 183.435 254.551 183.067 254.551 182.711C254.551 180.614 256.135 178.486 255.405 176.548C252.325 168.378 242.558 160.258 256.714 147.614C258.023 146.444 256.274 144.105 256.274 142.336C256.274 124.992 275.095 98.9752 287.694 110.882C295.049 117.832 310.371 122.77 317.525 132.437L317.62 132.723L317.341 132.836C315.911 133.438 314.406 133.839 312.867 134.028C314.508 134.363 316.182 134.503 317.855 134.446L318.115 134.437L318.178 134.69C318.801 137.191 319.115 139.758 319.115 142.336L319.114 142.614C319.108 144.572 319.514 146.509 320.306 148.299C321.098 150.089 322.258 151.691 323.71 153.002C326.004 155.096 327.837 157.646 329.092 160.488C330.347 163.33 330.997 166.403 331 169.511C331 173.188 328.504 178.014 326.41 181.416C325.88 182.282 325.16 183.017 324.305 183.565C323.451 184.114 322.483 184.461 321.475 184.581C320.52 184.702 319.551 184.611 318.635 184.314C317.719 184.018 316.88 183.524 316.176 182.867C317.167 184.862 318.458 186.693 320.005 188.295L320.291 188.59L319.936 188.797C316.527 190.787 312.652 191.835 308.706 191.833L308.475 191.833C302.484 191.833 296.798 194.157 292.874 198.208C290.791 200.357 288.3 202.068 285.547 203.24C282.795 204.412 279.836 205.022 276.845 205.033Z" fill="#DD6F31"/>
<path d="M268.983 240C268.887 240 268.794 239.965 268.721 239.902C268.648 239.838 268.601 239.751 268.587 239.655C268.57 239.535 266.902 227.487 268.4 211.475C269.784 196.687 274.228 175.387 287.541 157.894C287.572 157.851 287.612 157.816 287.658 157.789C287.703 157.763 287.754 157.745 287.806 157.738C287.858 157.731 287.911 157.734 287.962 157.748C288.013 157.761 288.061 157.784 288.103 157.816C288.145 157.848 288.181 157.888 288.207 157.934C288.234 157.98 288.251 158.03 288.258 158.083C288.265 158.135 288.261 158.188 288.248 158.239C288.234 158.29 288.211 158.338 288.178 158.38C274.981 175.722 270.572 196.866 269.198 211.549C267.709 227.469 269.364 239.423 269.381 239.542C269.389 239.599 269.385 239.657 269.368 239.712C269.352 239.767 269.324 239.818 269.286 239.862C269.249 239.905 269.202 239.94 269.15 239.964C269.098 239.988 269.041 240 268.983 240Z" fill="#3F3D56"/>
<path d="M281.139 182.126C281.054 182.126 280.972 182.099 280.903 182.049C280.835 182 280.784 181.929 280.757 181.849C280.731 181.768 280.731 181.681 280.757 181.601C280.784 181.52 280.835 181.45 280.903 181.4C284.696 178.829 288.794 176.74 293.102 175.182C299.833 172.715 310.068 170.478 320.604 173.836C320.654 173.852 320.701 173.877 320.741 173.911C320.781 173.945 320.815 173.987 320.839 174.034C320.863 174.081 320.878 174.132 320.882 174.184C320.887 174.237 320.881 174.29 320.865 174.34C320.849 174.39 320.823 174.437 320.789 174.477C320.755 174.517 320.714 174.55 320.667 174.575C320.62 174.599 320.569 174.614 320.517 174.618C320.464 174.623 320.411 174.617 320.361 174.601C310.04 171.312 299.991 173.512 293.378 175.936C289.139 177.468 285.107 179.521 281.374 182.049C281.306 182.099 281.224 182.126 281.139 182.126Z" fill="#3F3D56"/>
<path d="M262.514 134.713C262.508 134.629 262.529 134.544 262.573 134.472C262.618 134.4 262.684 134.344 262.763 134.312C262.841 134.28 262.928 134.274 263.01 134.294C263.092 134.314 263.166 134.36 263.221 134.425C266.055 138.028 268.431 141.97 270.293 146.16C273.236 152.704 276.201 162.764 273.615 173.528C273.603 173.58 273.58 173.628 273.549 173.671C273.519 173.714 273.48 173.75 273.435 173.778C273.39 173.805 273.34 173.824 273.288 173.832C273.235 173.84 273.182 173.838 273.131 173.826C273.08 173.813 273.031 173.791 272.989 173.76C272.946 173.729 272.91 173.69 272.882 173.645C272.855 173.599 272.837 173.549 272.829 173.497C272.82 173.445 272.823 173.392 272.835 173.34C275.368 162.797 272.453 152.919 269.562 146.49C267.731 142.367 265.395 138.488 262.608 134.943C262.553 134.878 262.52 134.798 262.514 134.713Z" fill="#3F3D56"/>
<path d="M38.1258 198.208C34.2019 194.157 28.5157 191.833 22.525 191.833L22.294 191.833C18.3481 191.835 14.4726 190.787 11.064 188.797L10.7093 188.59L10.995 188.295C12.5416 186.693 13.8331 184.862 14.8241 182.867C14.1202 183.524 13.2808 184.018 12.3651 184.315C11.4494 184.611 10.4799 184.702 9.52515 184.581C8.51719 184.461 7.54953 184.114 6.69474 183.565C5.83996 183.017 5.12025 182.282 4.5896 181.416C2.49582 178.014 0 173.188 0 169.511C0.00325793 166.403 0.653161 163.33 1.90829 160.488C3.16342 157.646 4.99624 155.096 7.28992 153.002C8.74202 151.691 9.90187 150.089 10.6939 148.299C11.4859 146.509 11.8922 144.572 11.8864 142.614L11.8853 142.336C11.8849 139.758 12.1994 137.191 12.8219 134.69L12.8852 134.437L13.1447 134.446C14.8182 134.503 16.4925 134.363 18.1332 134.028C16.5943 133.839 15.0887 133.438 13.6594 132.836L13.3802 132.723L13.4749 132.437C20.6289 122.77 35.9514 117.832 43.3058 110.882C55.9052 98.9753 74.7262 124.992 74.7262 142.336C74.7262 144.105 72.977 146.444 74.2864 147.614C88.4418 160.258 78.6748 168.378 75.5954 176.548C74.8648 178.486 76.449 180.614 76.449 182.712C76.449 183.067 76.4399 183.435 76.422 183.803L76.3948 184.37L75.9228 184.056C74.9891 183.443 74.1236 182.732 73.3411 181.935C74.1529 183.806 74.5354 185.835 74.4607 187.873C74.3859 189.911 73.8557 191.906 72.909 193.712C71.4256 196.515 69.9904 198.522 68.6434 199.676C64.3286 203.374 58.7662 205.281 53.0936 205.008C47.421 204.735 42.0668 202.303 38.1258 198.208Z" fill="#DD6F31"/>
<path d="M62.0166 240C62.113 240 62.2062 239.965 62.279 239.902C62.3518 239.838 62.3994 239.751 62.413 239.655C62.43 239.535 64.0985 227.487 62.6 211.475C61.2162 196.687 56.7721 175.387 43.4595 157.894C43.4276 157.851 43.3878 157.816 43.3422 157.789C43.2967 157.763 43.2463 157.745 43.1941 157.738C43.1418 157.731 43.0886 157.734 43.0376 157.748C42.9865 157.761 42.9387 157.784 42.8967 157.816C42.8547 157.848 42.8195 157.888 42.793 157.934C42.7665 157.98 42.7493 158.03 42.7423 158.083C42.7353 158.135 42.7387 158.188 42.7524 158.239C42.766 158.29 42.7895 158.338 42.8216 158.38C56.0193 175.722 60.4276 196.866 61.8017 211.549C63.2914 227.469 61.636 239.423 61.6191 239.542C61.6111 239.599 61.6154 239.657 61.6317 239.712C61.6479 239.767 61.6759 239.818 61.7135 239.862C61.7512 239.905 61.7978 239.94 61.8501 239.964C61.9023 239.988 61.9591 240 62.0166 240Z" fill="#3F3D56"/>
<path d="M49.8608 182.126C49.9455 182.126 50.028 182.099 50.0966 182.049C50.1651 182 50.2162 181.929 50.2424 181.849C50.2686 181.768 50.2686 181.681 50.2425 181.601C50.2163 181.52 50.1653 181.45 50.0968 181.4C46.3035 178.829 42.2056 176.74 37.8975 175.182C31.167 172.715 20.9321 170.478 10.3955 173.836C10.2942 173.868 10.2099 173.939 10.161 174.034C10.1122 174.128 10.1028 174.238 10.1351 174.34C10.1673 174.441 10.2385 174.526 10.3329 174.575C10.4274 174.624 10.5374 174.633 10.6387 174.601C20.9594 171.312 31.0087 173.512 37.6218 175.936C41.8607 177.468 45.8928 179.521 49.6254 182.049C49.6938 182.099 49.7762 182.126 49.8608 182.126Z" fill="#3F3D56"/>
<path d="M68.4858 134.713C68.492 134.629 68.4713 134.544 68.4266 134.472C68.3819 134.4 68.3156 134.344 68.2372 134.312C68.1587 134.28 68.0722 134.274 67.99 134.294C67.9077 134.314 67.8341 134.36 67.7795 134.425C64.9453 138.028 62.5696 141.97 60.7069 146.16C57.7645 152.704 54.7994 162.764 57.3853 173.528C57.3975 173.58 57.4197 173.628 57.4506 173.671C57.4815 173.714 57.5206 173.75 57.5655 173.778C57.6105 173.805 57.6604 173.824 57.7125 173.832C57.7646 173.84 57.8179 173.838 57.8691 173.826C57.9204 173.813 57.9688 173.791 58.0114 173.76C58.0541 173.729 58.0902 173.69 58.1176 173.645C58.1451 173.599 58.1634 173.549 58.1715 173.497C58.1796 173.445 58.1774 173.392 58.1649 173.34C55.6321 162.797 58.5471 152.919 61.4382 146.49C63.2692 142.367 65.6052 138.488 68.3925 134.943C68.4471 134.878 68.4798 134.798 68.4858 134.713Z" fill="#3F3D56"/>
<path d="M63.948 53.1255L22.708 53.722L22.7196 54.5283L63.9596 53.9318L63.948 53.1255Z" fill="#E6E6E6"/>
<path d="M64.7984 55.511C64.3576 55.2943 64.0118 54.9229 63.8269 54.4674C63.642 54.0119 63.6309 53.5042 63.7958 53.0411C63.9606 52.578 64.2899 52.1917 64.7208 51.956C65.1517 51.7203 65.6542 51.6515 66.1325 51.7628C66.6108 51.8741 67.0315 52.1577 67.3145 52.5596C67.5974 52.9614 67.7228 53.4534 67.6667 53.9419C67.6107 54.4304 67.3771 54.8811 67.0106 55.2083C66.644 55.5354 66.17 55.7161 65.679 55.7159C65.3737 55.7158 65.0724 55.6457 64.7984 55.511ZM65.2873 52.5554C65.1372 52.6067 64.9987 52.6874 64.8798 52.7927C64.761 52.8979 64.6642 53.0258 64.5951 53.1688C64.4721 53.4209 64.4402 53.7081 64.5049 53.9811C64.5696 54.254 64.7269 54.4961 64.9499 54.666C65.173 54.8358 65.4479 54.923 65.7279 54.9125C66.008 54.9021 66.2757 54.7948 66.4855 54.6088C66.6953 54.4228 66.8342 54.1697 66.8785 53.8927C66.9228 53.6157 66.8697 53.3318 66.7284 53.0896C66.587 52.8473 66.3661 52.6617 66.1034 52.5643C65.8406 52.4668 65.5522 52.4637 65.2873 52.5554Z" fill="#E6E6E6"/>
<path d="M10.6131 61.6451C14.616 61.6451 17.861 58.3961 17.861 54.3882C17.861 50.3803 14.616 47.1312 10.6131 47.1312C6.61022 47.1312 3.36523 50.3803 3.36523 54.3882C3.36523 58.3961 6.61022 61.6451 10.6131 61.6451Z" fill="#3F3D56"/>
<path d="M252.428 34.5799L252.416 35.3863L293.656 35.9828L293.668 35.1764L252.428 34.5799Z" fill="#E6E6E6"/>
<path d="M250.697 37.1704C250.201 37.1715 249.723 36.99 249.352 36.6604C248.982 36.3308 248.746 35.8762 248.689 35.3834C248.632 34.8906 248.758 34.394 249.043 33.9883C249.328 33.5827 249.753 33.2964 250.236 33.1841C250.718 33.0717 251.225 33.1413 251.66 33.3793C252.095 33.6174 252.427 34.0074 252.593 34.4749C252.759 34.9424 252.747 35.4547 252.559 35.9141C252.372 36.3734 252.023 36.7477 251.577 36.9655C251.303 37.0997 251.002 37.1697 250.697 37.1704ZM250.694 33.9433C250.432 33.9433 250.176 34.0288 249.967 34.187C249.757 34.3451 249.604 34.5673 249.532 34.82C249.46 35.0726 249.471 35.342 249.565 35.5873C249.659 35.8327 249.831 36.0408 250.053 36.1801C250.276 36.3194 250.538 36.3824 250.799 36.3596C251.061 36.3367 251.308 36.2293 251.503 36.0534C251.698 35.8776 251.83 35.643 251.881 35.385C251.931 35.127 251.896 34.8597 251.781 34.6234C251.681 34.4197 251.527 34.2478 251.335 34.1276C251.142 34.0074 250.921 33.9435 250.694 33.9433Z" fill="#E6E6E6"/>
<path d="M305.763 43.0996C309.765 43.0996 313.01 39.8505 313.01 35.8426C313.01 31.8347 309.765 28.5857 305.763 28.5857C301.76 28.5857 298.515 31.8347 298.515 35.8426C298.515 39.8505 301.76 43.0996 305.763 43.0996Z" fill="#3F3D56"/>
<path d="M225.98 55.5646L218.042 96.0885L218.833 96.2437L226.77 55.7198L225.98 55.5646Z" fill="#E6E6E6"/>
<path d="M224.533 53.5525C224.62 53.0641 224.884 52.625 225.274 52.3188C225.664 52.0127 226.153 51.861 226.647 51.8927C227.142 51.9243 227.607 52.1372 227.955 52.4906C228.303 52.844 228.508 53.3132 228.533 53.8087C228.557 54.3042 228.398 54.7914 228.087 55.1773C227.775 55.5631 227.333 55.8207 226.844 55.9008C226.355 55.9809 225.854 55.878 225.436 55.6116C225.018 55.3453 224.712 54.9341 224.577 54.4567C224.494 54.1626 224.479 53.8534 224.533 53.5525ZM227.705 54.1251C227.752 53.8665 227.713 53.5996 227.595 53.3649C227.477 53.1301 227.286 52.9403 227.051 52.8239C226.815 52.7076 226.548 52.6711 226.29 52.72C226.033 52.7689 225.798 52.9005 225.621 53.095C225.444 53.2894 225.336 53.5362 225.312 53.7979C225.287 54.0596 225.349 54.3221 225.487 54.5456C225.625 54.7692 225.832 54.9417 226.077 55.0371C226.321 55.1325 226.59 55.1456 226.843 55.0745C227.061 55.0128 227.257 54.8911 227.41 54.7233C227.562 54.5555 227.664 54.3482 227.705 54.1251Z" fill="#E6E6E6"/>
<path d="M216.022 115.298C220.025 115.298 223.27 112.049 223.27 108.041C223.27 104.033 220.025 100.784 216.022 100.784C212.019 100.784 208.774 104.033 208.774 108.041C208.774 112.049 212.019 115.298 216.022 115.298Z" fill="#3F3D56"/>
</g>
<defs>
<clipPath id="clip0_81_6775">
<rect width="331" height="240" fill="white"/>
</clipPath>
</defs>
</svg>
