<svg width="316" height="279" viewBox="0 0 316 279" fill="none" xmlns="http://www.w3.org/2000/svg">
<path d="M166.543 149.525C166.919 148.945 167.413 148.451 167.993 148.075C168.573 147.699 169.226 147.45 169.909 147.343C170.593 147.237 171.291 147.276 171.958 147.458C172.625 147.64 173.246 147.96 173.781 148.398C173.949 148.538 174.108 148.689 174.255 148.85L193.549 146.046L194.623 131.56C194.705 130.448 195.226 129.415 196.071 128.687C196.916 127.96 198.016 127.597 199.129 127.679C200.242 127.761 201.277 128.281 202.006 129.125C202.735 129.969 203.098 131.067 203.016 132.179C203.014 132.205 203.012 132.23 203.01 132.256L201.129 152.583L201.12 152.628C200.875 153.409 200.385 154.091 199.721 154.572C199.057 155.053 198.256 155.308 197.436 155.298L174.743 154.907C174.655 155.041 174.56 155.171 174.458 155.295C174.019 155.829 173.472 156.264 172.853 156.571C172.234 156.879 171.557 157.053 170.866 157.081C170.175 157.109 169.486 156.991 168.844 156.735C168.201 156.479 167.621 156.09 167.14 155.594C167.042 155.494 166.949 155.391 166.862 155.284C166.208 154.48 165.825 153.49 165.768 152.456C165.711 151.422 165.982 150.396 166.543 149.525Z" fill="#FFB7B7"/>
<path d="M205.442 273.037L199.939 273.036L197.321 251.844L205.442 251.844L205.442 273.037Z" fill="#FFB7B7"/>
<path d="M206.845 278.363L189.102 278.362V278.138C189.102 276.309 189.829 274.555 191.124 273.262C192.42 271.969 194.176 271.242 196.008 271.242H196.008L206.845 271.243L206.845 278.363Z" fill="#2F2E41"/>
<path d="M243.893 268.055L238.685 269.829L229.355 250.615L237.042 247.997L243.893 268.055Z" fill="#FFB7B7"/>
<path d="M246.943 272.644L230.15 278.363L230.078 278.15C229.486 276.42 229.608 274.525 230.416 272.884C231.223 271.242 232.651 269.988 234.384 269.398L234.385 269.398L244.642 265.905L246.943 272.644Z" fill="#2F2E41"/>
<path d="M211.501 87.7368C211.501 87.7368 206.024 85.9308 202.503 93.155C198.982 100.379 193.505 108.326 193.505 108.326L196.635 109.048C196.635 109.048 197.417 103.991 199.373 103.269L198.591 109.771C198.591 109.771 222.064 117.356 232.627 109.048L232.235 106.52C232.235 106.52 233.8 106.881 233.8 109.048L234.974 107.965C234.974 107.965 233.8 105.797 230.279 102.908C227.968 101.011 227.174 97.4027 226.901 95.1466C226.685 93.2366 225.864 91.4452 224.559 90.0321C222.219 87.5283 217.956 84.8672 211.501 87.7368Z" fill="#2F2E41"/>
<path d="M213.52 112.977C219.045 112.977 223.524 108.505 223.524 102.989C223.524 97.4725 219.045 93.0006 213.52 93.0006C207.995 93.0006 203.517 97.4725 203.517 102.989C203.517 108.505 207.995 112.977 213.52 112.977Z" fill="#FFB7B7"/>
<path d="M200.182 121.202L198.363 120.596C198.363 120.596 194.725 122.11 194.725 124.834C194.725 127.558 194.119 138.454 194.119 138.454L202.304 139.362L200.182 121.202Z" fill="#CBCBCB"/>
<path d="M232.735 180.737C231.981 179.893 231.555 178.807 231.535 177.676C231.515 176.544 231.903 175.444 232.627 174.574L227.521 131.878C227.471 130.872 227.823 129.886 228.5 129.138C229.177 128.39 230.124 127.941 231.132 127.889C232.14 127.837 233.128 128.187 233.878 128.861C234.629 129.536 235.08 130.48 235.134 131.487C235.135 131.501 235.136 131.515 235.136 131.528L239.704 174.269C239.87 174.435 240.022 174.614 240.161 174.803C240.527 175.309 240.79 175.882 240.935 176.489C241.079 177.097 241.103 177.726 241.003 178.343C240.904 178.959 240.684 179.55 240.356 180.082C240.029 180.613 239.599 181.075 239.092 181.441C239.04 181.479 238.987 181.516 238.933 181.551C238.346 181.939 237.681 182.192 236.985 182.293C236.289 182.393 235.579 182.338 234.906 182.133C234.066 181.879 233.315 181.395 232.735 180.737Z" fill="#FFB7B7"/>
<path d="M228.059 138.454L236.244 137.546C236.244 137.546 235.637 126.65 235.637 123.926C235.637 121.202 232 119.688 232 119.688L230.181 120.294L228.059 138.454Z" fill="#CBCBCB"/>
<path d="M201.394 153.572C201.394 153.572 194.422 166.3 194.422 181.736C194.422 197.173 193.816 267.999 193.816 267.999C193.816 267.999 202.91 272.236 208.366 267.09L213.217 188.698L232.314 265.577C232.314 265.577 241.408 267.393 245.652 264.366L237.467 210.793C237.467 210.793 234.133 160.549 225.039 156.917C215.945 153.285 201.394 153.572 201.394 153.572Z" fill="#2F2E41"/>
<path d="M202.71 103.052C206.252 100.493 209.118 97.5457 211.014 94.0396C211.014 94.0396 217.513 101.25 221.485 101.61C225.456 101.971 221.846 92.9581 221.846 92.9581L214.625 91.1556L207.765 91.8766L202.349 95.4816L202.71 103.052Z" fill="#2F2E41"/>
<path d="M223.523 117.872C223.523 117.872 223.812 117.718 206.548 118.346L199.323 120.332L198.363 120.596C198.363 120.596 199.272 138.757 201.697 142.086C204.122 145.416 203.516 147.232 202.91 147.534C202.304 147.837 200.788 147.232 201.697 148.745C202.607 150.258 203.819 149.35 202.607 150.258C201.394 151.166 200.788 154.496 200.788 154.496L227.464 158.128C227.464 158.128 228.373 146.324 230.798 140.27C233.223 134.217 233.83 131.795 233.83 131.795L232.011 119.688L223.523 117.872Z" fill="#CBCBCB"/>
<path d="M172.807 66.2446H171.273V24.2851C171.273 17.8443 168.71 11.6673 164.149 7.11295C159.588 2.55862 153.401 1.80117e-05 146.951 7.62949e-06L57.9179 7.62949e-06C51.4673 -1.00203e-05 45.2808 2.55857 40.7195 7.11288C36.1582 11.6672 33.5957 17.8442 33.5957 24.285V254.478C33.5957 260.919 36.1582 267.096 40.7195 271.651C45.2807 276.205 51.4671 278.763 57.9178 278.763H146.95C150.144 278.763 153.307 278.135 156.258 276.915C159.209 275.694 161.89 273.906 164.149 271.651C166.407 269.396 168.199 266.718 169.421 263.772C170.644 260.826 171.273 257.668 171.273 254.479V96.1121H172.807L172.807 66.2446Z" fill="#3F3D56"/>
<path d="M166.096 24.4557V254.31C166.099 256.69 165.631 259.047 164.721 261.246C163.811 263.445 162.476 265.444 160.793 267.128C159.109 268.812 157.109 270.149 154.908 271.061C152.707 271.974 150.348 272.445 147.965 272.447H58.4722C53.6582 272.45 49.04 270.544 45.6336 267.148C42.2271 263.751 40.3115 259.143 40.3081 254.336V24.4557C40.3064 22.0756 40.7743 19.7186 41.6849 17.5191C42.5955 15.3196 43.9311 13.3207 45.6155 11.6366C47.2998 9.95244 49.2998 8.61605 51.5014 7.7037C53.703 6.79135 56.063 6.32091 58.4466 6.31923H69.3244C68.79 7.6275 68.586 9.04694 68.7305 10.4525C68.8749 11.858 69.3633 13.2065 70.1527 14.3791C70.9422 15.5518 72.0083 16.5126 73.2572 17.1768C74.5062 17.8411 75.8995 18.1885 77.3146 18.1884H128.322C129.737 18.1885 131.13 17.8411 132.379 17.1768C133.628 16.5126 134.694 15.5518 135.483 14.3791C136.273 13.2065 136.761 11.858 136.906 10.4525C137.05 9.04694 136.846 7.6275 136.312 6.31923H147.932C152.745 6.31492 157.363 8.21987 160.77 11.615C164.176 15.0102 166.092 19.6174 166.097 24.4231L166.096 24.4557Z" fill="white"/>
<path d="M166.096 58.462V50.6328H154.229V7.43883C152.213 6.69556 150.081 6.31644 147.932 6.31921H146.388V50.6328H105.221V18.1884H97.3801V50.6328H62.8789V6.31925H58.4722C57.3196 6.31745 56.1695 6.42626 55.0377 6.64416V50.6328H40.3081V58.462H55.0377V76.5713L40.3083 85.062V94.1048L55.0377 85.6141V139.495H40.3081V147.324H55.0377V225.225H40.3081V233.054H55.0377V272.122C56.1695 272.34 57.3196 272.449 58.4723 272.447H62.8789V233.054H97.3801V272.447H105.221V233.054H146.388V272.447H147.932C150.081 272.45 152.213 272.071 154.229 271.327V233.054H166.096V225.225H154.229V191.168H165.991V183.338H154.229V147.324H166.096V139.495H154.229V91.7363H166.096V83.9071H154.229V58.462L166.096 58.462ZM86.4538 58.462L62.8791 72.0537L62.8789 58.462H86.4538ZM62.8789 81.0926L97.3801 61.2025V139.495H62.8789V81.0926ZM62.8789 225.225V147.324H97.3801V225.225H62.8789ZM146.388 225.225H105.221V191.168H146.388V225.225ZM146.388 183.338H105.221V147.324H146.388V183.338ZM146.388 139.495H105.221V91.7363H146.388V139.495ZM146.388 83.907H105.221V58.462H146.388V83.907Z" fill="#E5E5E5"/>
<path d="M172.656 84.0519C172.656 108.915 127.569 164.302 127.569 164.302C127.569 164.302 82.4819 108.915 82.4819 84.0519C82.4819 72.1123 87.2321 60.6618 95.6876 52.2192C104.143 43.7767 115.611 39.0337 127.569 39.0337C139.527 39.0337 150.995 43.7767 159.45 52.2192C167.905 60.6618 172.656 72.1123 172.656 84.0519Z" fill="#DD6F31"/>
<path d="M154.229 82.0946C154.229 87.3594 152.666 92.506 149.736 96.8835C146.807 101.261 142.643 104.673 137.772 106.688C132.9 108.702 127.54 109.23 122.368 108.202C117.197 107.175 112.446 104.64 108.718 100.917C104.989 97.1945 102.45 92.4514 101.421 87.2877C100.393 82.1241 100.921 76.7718 102.939 71.9077C104.956 67.0437 108.373 62.8863 112.758 59.9613C117.142 57.0363 122.296 55.4751 127.569 55.4751C131.069 55.4735 134.534 56.1601 137.768 57.4958C141.002 58.8315 143.94 60.79 146.416 63.2596C148.891 65.7291 150.855 68.6614 152.196 71.8889C153.537 75.1164 154.228 78.576 154.229 82.0701V82.0946Z" fill="white"/>
<path d="M127.477 92.6026C132.962 92.6026 137.409 88.1626 137.409 82.6856C137.409 77.2085 132.962 72.7685 127.477 72.7685C121.991 72.7685 117.544 77.2085 117.544 82.6856C117.544 88.1626 121.991 92.6026 127.477 92.6026Z" fill="#DD6F31"/>
<path d="M141.891 105.336C137.609 108.054 132.64 109.498 127.566 109.497C122.493 109.496 117.524 108.051 113.243 105.332C114.133 102.224 116.013 99.491 118.598 97.5453C121.183 95.5996 124.332 94.5474 127.569 94.5478C130.805 94.5483 133.954 95.6014 136.538 97.5478C139.123 99.4942 141.001 102.228 141.891 105.336Z" fill="#DD6F31"/>
<path d="M127.569 196.793C134.281 196.793 139.723 191.36 139.723 184.658C139.723 177.955 134.281 172.522 127.569 172.522C120.857 172.522 115.415 177.955 115.415 184.658C115.415 191.36 120.857 196.793 127.569 196.793Z" fill="#DD6F31"/>
</svg>
