<svg width="348" height="245" viewBox="0 0 348 245" fill="none" xmlns="http://www.w3.org/2000/svg">
<g clip-path="url(#clip0_81_6703)">
<path d="M77.1135 24.5419H54.9208C52.7872 24.5438 50.7416 25.3915 49.2329 26.8988C47.7242 28.4061 46.8758 30.4499 46.8739 32.5815V56.6199C46.5901 56.6029 46.3064 56.5776 46.0268 56.5437C40.7692 55.9911 35.7706 53.982 31.5947 50.743C27.4188 47.504 24.2316 43.1638 22.3925 38.212C20.5534 33.2601 20.1355 27.8933 21.1859 22.7168C22.2363 17.5403 24.7132 12.76 28.3375 8.91465C31.9617 5.06934 36.5891 2.31205 41.6979 0.95364C46.8067 -0.404772 52.1938 -0.310281 57.2517 1.22647C62.3097 2.76322 66.8373 5.68111 70.3242 9.65115C73.8111 13.6212 76.1186 18.4855 76.9865 23.6956C77.033 23.9749 77.0754 24.2584 77.1135 24.5419Z" fill="#F2F2F2"/>
<path d="M339.106 23.6956H54.9209C52.5628 23.6982 50.3021 24.6352 48.6347 26.3011C46.9673 27.967 46.0294 30.2256 46.0269 32.5815V182.372C46.0294 184.728 46.9673 186.986 48.6347 188.652C50.3021 190.318 52.5628 191.255 54.9209 191.258H339.106C341.464 191.255 343.725 190.318 345.392 188.652C347.059 186.986 347.997 184.728 348 182.372V32.5815C347.997 30.2256 347.059 27.967 345.392 26.3011C343.725 24.6352 341.464 23.6982 339.106 23.6956ZM347.153 182.372C347.151 184.503 346.302 186.547 344.794 188.054C343.285 189.562 341.239 190.409 339.106 190.411H54.9209C52.7873 190.409 50.7416 189.562 49.2329 188.054C47.7243 186.547 46.8758 184.503 46.8739 182.372V32.5815C46.8758 30.4499 47.7243 28.4061 49.2329 26.8988C50.7416 25.3915 52.7873 24.5438 54.9209 24.5419H339.106C341.239 24.5438 343.285 25.3915 344.794 26.8988C346.302 28.4061 347.151 30.4499 347.153 32.5815V182.372Z" fill="#3F3D56"/>
<path d="M325.129 47.9708H68.8972C68.7848 47.9708 68.6771 47.9262 68.5977 47.8469C68.5183 47.7675 68.4736 47.6599 68.4736 47.5477C68.4736 47.4355 68.5183 47.3278 68.5977 47.2485C68.6771 47.1691 68.7848 47.1245 68.8972 47.1245H325.129C325.242 47.1245 325.35 47.1691 325.429 47.2485C325.508 47.3278 325.553 47.4355 325.553 47.5477C325.553 47.6599 325.508 47.7675 325.429 47.8469C325.35 47.9262 325.242 47.9708 325.129 47.9708Z" fill="#3F3D56"/>
<path d="M141.32 173.063C141.208 173.063 141.1 173.018 141.021 172.939C140.941 172.859 140.896 172.752 140.896 172.64V33.4278C140.896 33.3155 140.941 33.2079 141.021 33.1286C141.1 33.0492 141.208 33.0046 141.32 33.0046C141.432 33.0046 141.54 33.0492 141.619 33.1286C141.699 33.2079 141.744 33.3155 141.744 33.4278V172.64C141.744 172.752 141.699 172.859 141.619 172.939C141.54 173.018 141.432 173.063 141.32 173.063Z" fill="#3F3D56"/>
<path d="M205.272 173.063C205.16 173.063 205.052 173.018 204.973 172.939C204.893 172.859 204.849 172.752 204.849 172.64V33.4278C204.849 33.3155 204.893 33.2079 204.973 33.1286C205.052 33.0492 205.16 33.0046 205.272 33.0046C205.384 33.0046 205.492 33.0492 205.572 33.1286C205.651 33.2079 205.696 33.3155 205.696 33.4278V172.64C205.696 172.752 205.651 172.859 205.572 172.939C205.492 173.018 205.384 173.063 205.272 173.063Z" fill="#3F3D56"/>
<path d="M269.224 173.063C269.112 173.063 269.004 173.018 268.925 172.939C268.845 172.859 268.801 172.752 268.801 172.64V33.4278C268.801 33.3155 268.845 33.2079 268.925 33.1286C269.004 33.0492 269.112 33.0046 269.224 33.0046C269.337 33.0046 269.444 33.0492 269.524 33.1286C269.603 33.2079 269.648 33.3155 269.648 33.4278V172.64C269.648 172.752 269.603 172.859 269.524 172.939C269.444 173.018 269.337 173.063 269.224 173.063Z" fill="#3F3D56"/>
<path d="M100.202 91.646H84.7267C84.2214 91.6454 83.7369 91.4447 83.3796 91.0877C83.0223 90.7307 82.8214 90.2467 82.8208 89.7419V71.4964C82.8214 70.9916 83.0223 70.5076 83.3796 70.1506C83.7369 69.7936 84.2214 69.5929 84.7267 69.5923H100.202C100.708 69.5929 101.192 69.7936 101.549 70.1506C101.907 70.5076 102.108 70.9916 102.108 71.4964V89.7419C102.108 90.2467 101.907 90.7307 101.549 91.0877C101.192 91.4447 100.708 91.6454 100.202 91.646Z" fill="#DD6F31"/>
<path d="M122.226 143.692H106.75C106.245 143.691 105.76 143.49 105.403 143.133C105.046 142.776 104.845 142.292 104.844 141.788V123.542C104.845 123.037 105.046 122.553 105.403 122.196C105.76 121.839 106.245 121.639 106.75 121.638H122.226C122.731 121.639 123.215 121.839 123.573 122.196C123.93 122.553 124.131 123.037 124.132 123.542V141.788C124.131 142.293 123.93 142.776 123.573 143.133C123.215 143.49 122.731 143.691 122.226 143.692Z" fill="#DD6F31"/>
<path d="M172.202 102.648H156.726C156.221 102.647 155.736 102.446 155.379 102.089C155.022 101.732 154.821 101.248 154.82 100.743V82.498C154.821 81.9931 155.022 81.5091 155.379 81.1522C155.736 80.7952 156.221 80.5944 156.726 80.5938H172.202C172.707 80.5944 173.191 80.7952 173.549 81.1522C173.906 81.5091 174.107 81.9931 174.108 82.498V100.743C174.107 101.248 173.906 101.732 173.549 102.089C173.191 102.446 172.707 102.647 172.202 102.648Z" fill="#DD6F31"/>
<path d="M237.001 82.7601H221.525C221.02 82.7596 220.536 82.5588 220.178 82.2018C219.821 81.8448 219.62 81.3609 219.62 80.856V62.6106C219.62 62.1057 219.821 61.6217 220.178 61.2648C220.536 60.9078 221.02 60.707 221.525 60.7064H237.001C237.506 60.707 237.991 60.9078 238.348 61.2648C238.705 61.6217 238.906 62.1057 238.907 62.6106V80.856C238.906 81.3609 238.705 81.8449 238.348 82.2018C237.991 82.5588 237.506 82.7596 237.001 82.7601Z" fill="#DD6F31"/>
<path d="M296.718 82.7601H281.242C280.737 82.7596 280.253 82.5588 279.895 82.2018C279.538 81.8448 279.337 81.3609 279.336 80.856V62.6106C279.337 62.1057 279.538 61.6217 279.895 61.2648C280.253 60.9078 280.737 60.707 281.242 60.7064H296.718C297.223 60.707 297.708 60.9078 298.065 61.2648C298.422 61.6217 298.623 62.1057 298.624 62.6106V80.856C298.623 81.3609 298.422 81.8449 298.065 82.2018C297.708 82.5588 297.223 82.7596 296.718 82.7601Z" fill="#DD6F31"/>
<path d="M324.247 87.8378H308.772C308.266 87.8372 307.782 87.6364 307.425 87.2794C307.067 86.9225 306.866 86.4385 306.866 85.9337V67.6882C306.866 67.1834 307.067 66.6994 307.425 66.3424C307.782 65.9854 308.266 65.7846 308.772 65.7841H324.247C324.752 65.7846 325.237 65.9854 325.594 66.3424C325.951 66.6994 326.152 67.1834 326.153 67.6882V85.9337C326.152 86.4385 325.951 86.9225 325.594 87.2795C325.237 87.6364 324.752 87.8372 324.247 87.8378Z" fill="#E6E6E6"/>
<path d="M311.965 120.419H296.489C295.984 120.419 295.5 120.218 295.142 119.861C294.785 119.504 294.584 119.02 294.583 118.515V100.27C294.584 99.7649 294.785 99.2809 295.142 98.9239C295.5 98.5669 295.984 98.3661 296.489 98.3656H311.965C312.47 98.3661 312.955 98.5669 313.312 98.9239C313.669 99.2809 313.87 99.7649 313.871 100.27V118.515C313.87 119.02 313.669 119.504 313.312 119.861C312.955 120.218 312.47 120.419 311.965 120.419Z" fill="#E6E6E6"/>
<path d="M259.448 113.649H243.972C243.467 113.649 242.983 113.448 242.625 113.091C242.268 112.734 242.067 112.25 242.066 111.745V93.4995C242.067 92.9947 242.268 92.5107 242.625 92.1537C242.983 91.7968 243.467 91.596 243.972 91.5954H259.448C259.953 91.596 260.438 91.7968 260.795 92.1537C261.152 92.5107 261.353 92.9947 261.354 93.4995V111.745C261.353 112.25 261.152 112.734 260.795 113.091C260.438 113.448 259.953 113.649 259.448 113.649Z" fill="#FF6584"/>
<path d="M229.378 120.419H213.902C213.397 120.419 212.912 120.218 212.555 119.861C212.198 119.504 211.997 119.02 211.996 118.515V100.27C211.997 99.7649 212.198 99.2809 212.555 98.9239C212.912 98.5669 213.397 98.3661 213.902 98.3656H229.378C229.883 98.3661 230.367 98.5669 230.725 98.9239C231.082 99.2809 231.283 99.7649 231.283 100.27V118.515C231.283 119.02 231.082 119.504 230.725 119.861C230.367 120.218 229.883 120.419 229.378 120.419Z" fill="#E6E6E6"/>
<path d="M164.578 149.193H149.103C148.597 149.192 148.113 148.991 147.756 148.634C147.398 148.277 147.197 147.793 147.197 147.288V129.043C147.197 128.538 147.398 128.054 147.756 127.697C148.113 127.34 148.597 127.139 149.103 127.139H164.578C165.084 127.139 165.568 127.34 165.925 127.697C166.283 128.054 166.484 128.538 166.484 129.043V147.288C166.484 147.793 166.283 148.277 165.925 148.634C165.568 148.991 165.084 149.192 164.578 149.193Z" fill="#E6E6E6"/>
<path d="M86.2262 125.074H70.7506C70.2453 125.073 69.7609 124.872 69.4036 124.515C69.0463 124.158 68.8453 123.674 68.8447 123.17V104.924C68.8453 104.419 69.0463 103.935 69.4036 103.578C69.7609 103.221 70.2453 103.021 70.7506 103.02H86.2262C86.7315 103.021 87.2159 103.221 87.5732 103.578C87.9305 103.935 88.1315 104.419 88.132 104.924V123.17C88.1315 123.675 87.9305 124.158 87.5732 124.515C87.2159 124.872 86.7315 125.073 86.2262 125.074Z" fill="#FF6584"/>
<path d="M129.849 91.646H114.374C113.868 91.6454 113.384 91.4447 113.027 91.0877C112.669 90.7307 112.468 90.2467 112.468 89.7419V71.4964C112.468 70.9916 112.669 70.5076 113.027 70.1506C113.384 69.7936 113.868 69.5929 114.374 69.5923H129.849C130.355 69.5929 130.839 69.7936 131.196 70.1506C131.554 70.5076 131.755 70.9916 131.755 71.4964V89.7419C131.755 90.2467 131.554 90.7307 131.196 91.0877C130.839 91.4447 130.355 91.6454 129.849 91.646Z" fill="#E6E6E6"/>
<path d="M117.179 41.0442H93.0383C92.589 41.0442 92.1581 40.8659 91.8404 40.5485C91.5227 40.2311 91.3442 39.8006 91.3442 39.3517C91.3442 38.9028 91.5227 38.4723 91.8404 38.1549C92.1581 37.8375 92.589 37.6591 93.0383 37.6591H117.179C117.629 37.6591 118.059 37.8375 118.377 38.1549C118.695 38.4723 118.873 38.9028 118.873 39.3517C118.873 39.8006 118.695 40.2311 118.377 40.5485C118.059 40.8659 117.629 41.0442 117.179 41.0442Z" fill="#CCCCCC"/>
<path d="M185.367 41.0442H161.226C160.777 41.0442 160.346 40.8659 160.028 40.5485C159.71 40.2311 159.532 39.8006 159.532 39.3517C159.532 38.9028 159.71 38.4723 160.028 38.1549C160.346 37.8375 160.777 37.6591 161.226 37.6591H185.367C185.816 37.6591 186.247 37.8375 186.565 38.1549C186.882 38.4723 187.061 38.9028 187.061 39.3517C187.061 39.8006 186.882 40.2311 186.565 40.5485C186.247 40.8659 185.816 41.0442 185.367 41.0442Z" fill="#CCCCCC"/>
<path d="M249.319 41.0442H225.178C224.729 41.0442 224.298 40.8659 223.98 40.5485C223.662 40.2311 223.484 39.8006 223.484 39.3517C223.484 38.9028 223.662 38.4723 223.98 38.1549C224.298 37.8375 224.729 37.6591 225.178 37.6591H249.319C249.768 37.6591 250.199 37.8375 250.517 38.1549C250.834 38.4723 251.013 38.9028 251.013 39.3517C251.013 39.8006 250.834 40.2311 250.517 40.5485C250.199 40.8659 249.768 41.0442 249.319 41.0442Z" fill="#CCCCCC"/>
<path d="M309.036 41.0442H284.895C284.445 41.0442 284.015 40.8659 283.697 40.5485C283.379 40.2311 283.201 39.8006 283.201 39.3517C283.201 38.9028 283.379 38.4723 283.697 38.1549C284.015 37.8375 284.445 37.6591 284.895 37.6591H309.036C309.485 37.6591 309.916 37.8375 310.234 38.1549C310.551 38.4723 310.73 38.9028 310.73 39.3517C310.73 39.8006 310.551 40.2311 310.234 40.5485C309.916 40.8659 309.485 41.0442 309.036 41.0442Z" fill="#CCCCCC"/>
<path d="M63.1092 164.977C62.4895 164.917 61.8907 164.721 61.3549 164.404C60.8191 164.087 60.3594 163.657 60.0081 163.143C59.6568 162.63 59.4225 162.045 59.3217 161.432C59.2208 160.818 59.2559 160.189 59.4245 159.59L48.5684 149.494L54.3083 148.039L64.9835 156.69C65.9717 157.039 66.7971 157.739 67.3034 158.656C67.8098 159.573 67.9618 160.644 67.7308 161.665C67.4997 162.687 66.9017 163.588 66.0499 164.199C65.1981 164.809 64.1518 165.086 63.1092 164.977Z" fill="#FFB8B8"/>
<path d="M78.0995 239.602H83.2919L85.7619 219.593H78.0986L78.0995 239.602Z" fill="#FFB8B8"/>
<path d="M93.3057 244.419L76.987 244.419L76.9867 238.12L87.0004 238.12C88.6726 238.12 90.2763 238.783 91.4588 239.964C92.6412 241.146 93.3056 242.748 93.3057 244.419Z" fill="#2F2E41"/>
<path d="M42.4985 235.857L47.5165 237.191L55.0556 218.49L47.6503 216.521L42.4985 235.857Z" fill="#FFB8B8"/>
<path d="M55.9531 244.42L40.1835 240.227L41.8053 234.139L51.4821 236.713C53.098 237.142 54.4769 238.196 55.3153 239.641C56.1538 241.087 56.3832 242.806 55.9531 244.42Z" fill="#2F2E41"/>
<path d="M84.6885 235.814H76.7655C76.2651 235.816 75.7821 235.63 75.4117 235.294C75.0412 234.958 74.8102 234.495 74.7639 233.997L69.9542 184.096C69.919 183.73 69.7575 183.388 69.4974 183.127C69.2373 182.867 68.8948 182.705 68.5285 182.67C68.1622 182.634 67.7948 182.727 67.4893 182.932C67.1838 183.137 66.959 183.441 66.8536 183.794L52.8885 230.423C52.7408 230.919 52.4073 231.338 51.9575 231.594C51.5078 231.85 50.9765 231.922 50.4744 231.796L43.1038 229.955C42.8466 229.891 42.6046 229.777 42.3918 229.618C42.1789 229.46 41.9995 229.262 41.8638 229.034C41.7281 228.807 41.6388 228.555 41.6011 228.292C41.5633 228.03 41.5778 227.763 41.6438 227.506C41.7642 227.037 53.6764 180.526 53.7804 180.048C56.4795 160.174 59.7085 154.849 61.4433 151.988C61.5869 151.751 61.7188 151.534 61.8376 151.328C61.9863 151.07 62.9017 148.516 63.4824 146.858C63.5578 146.588 63.6884 146.337 63.8659 146.12C64.0434 145.903 64.264 145.725 64.5137 145.598C71.8029 141.873 80.3313 144.451 82.7715 145.33C83.176 145.473 83.5235 145.742 83.7617 146.099C91.0822 157.13 87.4897 221.202 86.6952 233.934C86.6621 234.443 86.4363 234.921 86.0637 235.27C85.691 235.619 85.1994 235.813 84.6885 235.814Z" fill="#2F2E41"/>
<path d="M64.242 109.417C69.987 109.417 74.6442 104.764 74.6442 99.0242C74.6442 93.2844 69.987 88.6315 64.242 88.6315C58.4971 88.6315 53.8398 93.2844 53.8398 99.0242C53.8398 104.764 58.4971 109.417 64.242 109.417Z" fill="#FFB8B8"/>
<path d="M63.1399 148.875L63.0651 148.803C62.9249 148.668 49.0652 135.102 50.8589 122.558C51.626 117.193 55.971 113.765 63.4239 112.644C66.162 112.238 68.9548 112.832 71.289 114.319C73.6233 115.805 75.3421 118.083 76.1295 120.735L83.4988 145.905L63.1399 148.875Z" fill="#CCCCCC"/>
<path d="M56.0463 158.524L46.1704 148.72C45.4951 148.045 45.0048 147.209 44.7467 146.291C44.4886 145.372 44.4714 144.403 44.6966 143.476L49.4776 124.046C49.6208 123.464 49.8821 122.917 50.2453 122.44C50.6085 121.963 51.0659 121.565 51.5892 121.272C52.1124 120.978 52.6904 120.795 53.2874 120.734C53.8843 120.672 54.4875 120.734 55.0596 120.915C56.1501 121.266 57.061 122.028 57.5992 123.038C58.1375 124.049 58.261 125.229 57.9434 126.329L52.9101 143.422L61.0495 152.154L56.0463 158.524Z" fill="#CCCCCC"/>
<path d="M109.017 125.063C108.756 125.628 108.374 126.129 107.898 126.53C107.423 126.931 106.865 127.223 106.264 127.386C105.663 127.548 105.033 127.577 104.42 127.47C103.806 127.364 103.224 127.124 102.713 126.768L89.5293 133.595L90.112 127.796L101.8 120.569C102.455 119.752 103.388 119.203 104.422 119.027C105.455 118.851 106.517 119.059 107.407 119.613C108.296 120.167 108.951 121.028 109.248 122.033C109.545 123.037 109.463 124.115 109.017 125.063Z" fill="#FFB8B8"/>
<path d="M101.274 129.38L88.4212 134.929C87.5658 135.295 86.6304 135.436 85.7049 135.337C84.7795 135.237 83.8951 134.902 83.1369 134.363L66.7936 122.663C66.3058 122.314 65.8949 121.869 65.5864 121.354C65.2779 120.84 65.0783 120.268 64.9999 119.674C64.9216 119.079 64.9662 118.475 65.1309 117.899C65.2957 117.322 65.5771 116.786 65.9577 116.322C66.6892 115.441 67.7353 114.879 68.8744 114.755C70.0135 114.631 71.1561 114.955 72.0601 115.659L86.0739 126.678L97.2127 122.373L101.274 129.38Z" fill="#CCCCCC"/>
<path d="M65.9666 102.354C67.2499 100.748 69.6474 100.662 71.4101 99.602C73.7191 98.2139 74.6737 95.1122 73.9296 92.5246C73.1855 89.937 70.9912 87.9204 68.4753 86.956C65.9594 85.9915 63.1603 85.9796 60.5063 86.4458C56.5547 87.14 52.6643 88.9826 50.2542 92.1873C47.8442 95.3921 47.2309 100.086 49.415 103.448C50.4189 104.993 51.9686 106.269 52.3693 108.067C52.8955 110.428 51.2379 112.705 49.4622 114.349C47.4391 116.222 45.1181 117.791 43.3456 119.902C41.5732 122.013 40.3913 124.898 41.2001 127.532C41.8777 129.739 43.8496 131.366 46.0119 132.18C48.1742 132.994 50.5293 133.112 52.8397 133.157C55.0831 133.201 57.4661 133.146 59.356 131.938C61.3792 130.644 62.4595 128.19 62.5393 125.791C62.6191 123.392 61.8169 121.042 60.7416 118.896C60.1007 117.617 59.3556 116.377 58.9297 115.012C58.5038 113.646 58.4301 112.096 59.1121 110.838C59.8289 109.516 61.2793 108.719 62.7561 108.429C62.8328 108.414 62.914 108.4 62.9989 108.388C63.4191 108.334 63.8239 108.195 64.1888 107.98C64.5537 107.765 64.871 107.478 65.1218 107.136C65.3725 106.795 65.5514 106.407 65.6475 105.994C65.7437 105.582 65.7552 105.155 65.6812 104.738C65.513 103.801 65.5275 102.904 65.9666 102.354Z" fill="#2F2E41"/>
<path d="M204.659 240.045H199.467L196.997 220.036L204.66 220.036L204.659 240.045Z" fill="#A0616A"/>
<path d="M195.758 238.563H205.772V244.862H189.453C189.453 244.035 189.616 243.216 189.933 242.452C190.25 241.687 190.714 240.993 191.3 240.408C191.885 239.823 192.58 239.359 193.345 239.042C194.11 238.726 194.93 238.563 195.758 238.563Z" fill="#2F2E41"/>
<path d="M242.334 234.169L237.611 236.324L227.042 219.15L234.013 215.968L242.334 234.169Z" fill="#A0616A"/>
<path d="M233.621 236.516L242.73 232.359L245.349 238.089L230.506 244.862C230.162 244.11 229.969 243.297 229.94 242.471C229.91 241.644 230.044 240.819 230.333 240.044C230.623 239.269 231.062 238.559 231.626 237.953C232.19 237.348 232.868 236.859 233.621 236.516Z" fill="#2F2E41"/>
<path d="M227.213 172.579C227.71 172.205 228.12 171.727 228.412 171.177C228.704 170.628 228.873 170.022 228.905 169.4C228.937 168.779 228.833 168.158 228.599 167.582C228.365 167.005 228.008 166.487 227.552 166.063L233.656 152.227L225.902 153.54L221.294 166.478C220.633 167.29 220.293 168.317 220.338 169.363C220.384 170.41 220.812 171.403 221.541 172.155C222.271 172.907 223.251 173.366 224.296 173.444C225.342 173.522 226.379 173.214 227.213 172.579Z" fill="#A0616A"/>
<path d="M204.328 234.769H199.368C198.887 234.768 198.424 234.585 198.072 234.258C197.719 233.93 197.503 233.482 197.467 233.003L194.762 160.834C194.742 160.557 194.782 160.28 194.881 160.02C194.979 159.761 195.133 159.526 195.332 159.333C195.53 159.139 195.769 158.991 196.031 158.899C196.293 158.807 196.572 158.774 196.848 158.801L225.535 161.844C226 161.89 226.432 162.104 226.749 162.447C227.067 162.79 227.247 163.237 227.256 163.704L227.857 195.538C227.86 195.711 227.894 195.882 227.956 196.043L239.724 226.531C239.815 226.767 239.858 227.018 239.85 227.271C239.843 227.523 239.786 227.771 239.682 228.001C239.578 228.231 239.429 228.438 239.244 228.61C239.059 228.782 238.841 228.916 238.604 229.003L233.578 230.853C233.141 231.014 232.661 231.009 232.227 230.841C231.794 230.672 231.437 230.351 231.224 229.938L216.768 201.854C216.689 201.702 216.632 201.539 216.597 201.371L214.127 189.483C214.056 189.139 213.863 188.831 213.585 188.615C213.307 188.399 212.961 188.289 212.609 188.305C212.257 188.321 211.922 188.462 211.664 188.702C211.407 188.942 211.243 189.266 211.203 189.616L206.222 233.082C206.168 233.546 205.946 233.975 205.597 234.286C205.248 234.597 204.796 234.769 204.328 234.769Z" fill="#2F2E41"/>
<path d="M206.798 104.404C212.543 104.404 217.2 99.7512 217.2 94.0115C217.2 88.2718 212.543 83.6189 206.798 83.6189C201.053 83.6189 196.396 88.2718 196.396 94.0115C196.396 99.7512 201.053 104.404 206.798 104.404Z" fill="#A0616A"/>
<path d="M213.932 167.433C206.878 167.355 199.992 165.271 194.08 161.425L193.979 161.355L193.989 161.233L197.968 114.935C198.106 113.364 198.807 111.896 199.944 110.802C201.081 109.708 202.575 109.063 204.151 108.985C209.308 108.748 216.235 109.046 219.943 111.806C225.546 115.975 228.247 122.254 227.353 129.032C225.498 143.088 227.599 162.049 227.845 164.165L227.863 164.318L227.723 164.382C223.403 166.39 218.697 167.431 213.932 167.433Z" fill="#DD6F31"/>
<path d="M227.797 164.244C227.503 164.243 227.214 164.182 226.945 164.064C226.677 163.946 226.436 163.773 226.238 163.557L223.962 161.077C223.717 160.808 223.544 160.479 223.462 160.124C223.38 159.769 223.39 159.398 223.493 159.048L228.681 141.503L220.787 124.94C220.418 124.165 220.328 123.287 220.531 122.453C220.71 121.72 221.107 121.06 221.67 120.558C222.232 120.056 222.934 119.736 223.682 119.64C224.431 119.545 225.19 119.678 225.861 120.023C226.532 120.367 227.082 120.907 227.44 121.571L238.153 138.937C238.588 139.642 238.844 140.442 238.897 141.268C238.95 142.094 238.799 142.921 238.458 143.675L229.729 162.998C229.585 163.317 229.364 163.596 229.086 163.809C228.807 164.021 228.48 164.162 228.134 164.217C228.022 164.234 227.91 164.244 227.797 164.244Z" fill="#DD6F31"/>
<path d="M154.475 130.729C154.975 131.1 155.55 131.358 156.16 131.483C156.77 131.608 157.4 131.598 158.005 131.454C158.611 131.309 159.177 131.034 159.665 130.647C160.153 130.261 160.549 129.772 160.828 129.215L175.836 131.16L172.387 124.099L158.663 123.334C157.696 122.93 156.615 122.893 155.623 123.232C154.631 123.571 153.798 124.262 153.282 125.173C152.766 126.085 152.602 127.154 152.822 128.178C153.042 129.202 153.63 130.109 154.475 130.729Z" fill="#A0616A"/>
<path d="M187.558 134.586C187.296 134.586 187.035 134.568 186.776 134.532L163.164 131.26C162.778 131.207 162.412 131.059 162.098 130.829C161.783 130.599 161.531 130.295 161.364 129.943C161.31 129.83 161.265 129.713 161.229 129.593C161.138 129.28 161.112 128.952 161.154 128.629C161.196 128.307 161.305 127.996 161.473 127.717L163.427 124.481C163.637 124.135 163.933 123.849 164.285 123.65C164.638 123.451 165.036 123.346 165.441 123.344H165.444L186.026 123.368L201.397 109.609C202.112 108.97 203.026 108.597 203.984 108.551C204.825 108.512 205.658 108.729 206.374 109.173C207.089 109.616 207.653 110.267 207.991 111.037C208.329 111.808 208.426 112.662 208.268 113.489C208.11 114.315 207.705 115.074 207.106 115.666L191.768 132.709C191.237 133.3 190.588 133.772 189.863 134.095C189.137 134.419 188.352 134.586 187.558 134.586Z" fill="#DD6F31"/>
<path d="M207.981 103.257C208.932 101.059 209.736 98.1318 207.913 96.5778C206.855 95.6764 205.332 95.6746 203.946 95.5624C200.042 95.2465 196.024 93.452 194.116 90.0348C192.208 86.6176 193.273 81.5363 196.873 79.9946C199.3 78.9554 202.081 79.6633 204.621 80.3829L212.247 82.5434C214.513 83.1853 216.892 83.8933 218.523 85.5906C221.125 88.2975 220.931 92.8735 218.864 96.0074C216.798 99.1413 213.686 102.41 210.124 103.6L207.981 103.257Z" fill="#2F2E41"/>
</g>
<defs>
<clipPath id="clip0_81_6703">
<rect width="348" height="245" fill="white"/>
</clipPath>
</defs>
</svg>
