<svg width="345" height="269" viewBox="0 0 345 269" fill="none" xmlns="http://www.w3.org/2000/svg">
<g clip-path="url(#clip0_81_6591)">
<path d="M342.444 155.931H79.0229C78.3453 155.93 77.6956 155.669 77.2164 155.204C76.7373 154.74 76.4678 154.11 76.467 153.453V2.47771C76.4678 1.8208 76.7373 1.191 77.2164 0.726496C77.6956 0.261991 78.3453 0.000717113 79.0229 0H342.444C343.122 0.000717115 343.772 0.261992 344.251 0.726498C344.73 1.191 344.999 1.8208 345 2.47771V153.453C344.999 154.11 344.73 154.74 344.251 155.204C343.772 155.669 343.122 155.93 342.444 155.931ZM79.0229 0.991084C78.6163 0.991514 78.2265 1.14828 77.939 1.42698C77.6515 1.70569 77.4898 2.08357 77.4894 2.47771V153.453C77.4898 153.847 77.6515 154.225 77.939 154.504C78.2265 154.782 78.6163 154.939 79.0229 154.94H342.444C342.851 154.939 343.241 154.782 343.528 154.504C343.816 154.225 343.977 153.847 343.978 153.453V2.47771C343.977 2.08357 343.816 1.70569 343.528 1.42698C343.241 1.14828 342.851 0.991514 342.444 0.991084H79.0229Z" fill="#E6E6E6"/>
<path d="M185.342 12.0577C184.81 12.0663 184.303 12.277 183.931 12.6445C183.558 13.0119 183.349 13.5066 183.349 14.022C183.349 14.5373 183.558 15.0321 183.931 15.3995C184.303 15.767 184.81 15.9777 185.342 15.9863H236.147C236.683 15.994 237.201 15.7953 237.586 15.4336C237.972 15.072 238.193 14.577 238.203 14.0571C238.213 13.5372 238.009 13.0348 237.637 12.66C237.266 12.2852 236.756 12.0687 236.219 12.0578L236.213 12.0577C236.191 12.0573 236.169 12.0573 236.147 12.0577H185.342Z" fill="#3F3D56"/>
<path d="M247.668 11.5107C247.593 11.5832 247.551 11.6815 247.551 11.784C247.551 11.8865 247.593 11.9848 247.668 12.0573L249.38 13.7167H245.159C245.053 13.717 244.952 13.7579 244.878 13.8303C244.803 13.9028 244.761 14.0009 244.761 14.1033C244.761 14.2056 244.803 14.3037 244.878 14.3762C244.952 14.4486 245.053 14.4895 245.159 14.4898H249.38L247.668 16.1492C247.631 16.1851 247.602 16.2277 247.582 16.2746C247.562 16.3215 247.551 16.3717 247.551 16.4225C247.551 16.4733 247.562 16.5235 247.582 16.5704C247.602 16.6173 247.631 16.6599 247.668 16.6958C247.705 16.7317 247.749 16.7602 247.797 16.7796C247.846 16.799 247.898 16.809 247.95 16.809C248.002 16.809 248.054 16.799 248.103 16.7796C248.151 16.7602 248.195 16.7317 248.232 16.6958L250.624 14.3766C250.699 14.3041 250.741 14.2058 250.741 14.1033C250.741 14.0007 250.699 13.9024 250.624 13.8299L248.232 11.5107C248.195 11.4748 248.151 11.4463 248.103 11.4269C248.054 11.4075 248.002 11.3975 247.95 11.3975C247.898 11.3975 247.846 11.4075 247.798 11.4269C247.749 11.4463 247.705 11.4748 247.668 11.5107Z" fill="#E6E6E6"/>
<path d="M173.799 11.5107C173.874 11.5832 173.916 11.6815 173.916 11.784C173.916 11.8865 173.874 11.9848 173.799 12.0573L172.087 13.7167H176.308C176.36 13.7165 176.412 13.7264 176.461 13.7457C176.509 13.765 176.554 13.7934 176.591 13.8292C176.628 13.8651 176.657 13.9077 176.678 13.9547C176.698 14.0016 176.708 14.052 176.708 14.1028C176.708 14.1537 176.698 14.204 176.678 14.251C176.658 14.298 176.629 14.3407 176.591 14.3766C176.554 14.4126 176.51 14.4411 176.462 14.4605C176.413 14.4799 176.361 14.4899 176.309 14.4898H172.087L173.799 16.1492C173.836 16.1851 173.865 16.2277 173.885 16.2746C173.905 16.3215 173.916 16.3717 173.916 16.4225C173.916 16.4733 173.905 16.5235 173.885 16.5704C173.865 16.6173 173.836 16.6599 173.799 16.6958C173.762 16.7317 173.718 16.7602 173.669 16.7796C173.621 16.799 173.569 16.809 173.517 16.809C173.465 16.809 173.413 16.799 173.364 16.7796C173.316 16.7602 173.272 16.7317 173.235 16.6958L170.843 14.3766C170.768 14.3041 170.726 14.2058 170.726 14.1033C170.726 14.0008 170.768 13.9024 170.843 13.8299L173.235 11.5107C173.31 11.4382 173.411 11.3975 173.517 11.3975C173.623 11.3975 173.724 11.4382 173.799 11.5107Z" fill="#E6E6E6"/>
<path d="M76.3146 164.247C74.0046 164.247 71.7465 163.583 69.8259 162.339C67.9052 161.095 66.4083 159.326 65.5243 157.257C64.6403 155.189 64.409 152.912 64.8597 150.716C65.3103 148.519 66.4227 146.502 68.0561 144.919C69.6894 143.335 71.7705 142.257 74.0361 141.82C76.3016 141.383 78.6499 141.607 80.784 142.464C82.9182 143.321 84.7422 144.772 86.0256 146.634C87.3089 148.496 87.9939 150.685 87.9939 152.925C87.9939 155.927 86.7634 158.807 84.5731 160.931C82.3828 163.054 79.4121 164.247 76.3146 164.247Z" fill="#DD6F31"/>
<path d="M80.9228 151.808H77.4665V148.457C77.4665 148.161 77.3451 147.877 77.1291 147.667C76.913 147.458 76.62 147.34 76.3144 147.34C76.0089 147.34 75.7158 147.458 75.4998 147.667C75.2837 147.877 75.1623 148.161 75.1623 148.457V151.808H71.706C71.4005 151.808 71.1074 151.925 70.8914 152.135C70.6753 152.344 70.554 152.628 70.554 152.925C70.554 153.221 70.6753 153.505 70.8914 153.714C71.1074 153.924 71.4005 154.042 71.706 154.042H75.1623V157.392C75.1623 157.688 75.2837 157.972 75.4998 158.182C75.7158 158.391 76.0089 158.509 76.3144 158.509C76.62 158.509 76.913 158.391 77.1291 158.182C77.3451 157.972 77.4665 157.688 77.4665 157.392V154.042H80.9228C81.2283 154.042 81.5214 153.924 81.7374 153.714C81.9535 153.505 82.0749 153.221 82.0749 152.925C82.0749 152.628 81.9535 152.344 81.7374 152.135C81.5214 151.925 81.2283 151.808 80.9228 151.808Z" fill="white"/>
<path d="M132.866 32.1698H97.7656V55.2951H132.866V32.1698Z" fill="#F1F1F1"/>
<path d="M180.575 32.1698H145.475V55.2951H180.575V32.1698Z" fill="#F1F1F1"/>
<path d="M228.283 32.1698H193.183V55.2951H228.283V32.1698Z" fill="#F1F1F1"/>
<path d="M275.992 32.1698H240.892V55.2951H275.992V32.1698Z" fill="#F1F1F1"/>
<path d="M323.701 32.1698H288.601V55.2951H323.701V32.1698Z" fill="#F1F1F1"/>
<path d="M132.994 72.8043H97.8943V95.9296H132.994V72.8043Z" fill="#F1F1F1"/>
<path d="M180.703 72.8043H145.603V95.9296H180.703V72.8043Z" fill="#F1F1F1"/>
<path d="M228.412 72.8043H193.312V95.9296H228.412V72.8043Z" fill="#F1F1F1"/>
<path d="M276.121 72.8043H241.021V95.9296H276.121V72.8043Z" fill="#F1F1F1"/>
<path d="M323.83 72.8043H288.73V95.9296H323.83V72.8043Z" fill="#F1F1F1"/>
<path d="M133.123 113.439H98.0229V136.564H133.123V113.439Z" fill="#F1F1F1"/>
<path d="M180.832 113.439H145.732V136.564H180.832V113.439Z" fill="#F1F1F1"/>
<path d="M228.541 113.439H193.441V136.564H228.541V113.439Z" fill="#F1F1F1"/>
<path d="M276.25 113.439H241.15V136.564H276.25V113.439Z" fill="#F1F1F1"/>
<path d="M323.959 113.439H288.859V136.564H323.959V113.439Z" fill="#F1F1F1"/>
<path d="M200.468 43.7325C202.915 43.7325 204.899 41.8097 204.899 39.4378C204.899 37.0659 202.915 35.1431 200.468 35.1431C198.022 35.1431 196.038 37.0659 196.038 39.4378C196.038 41.8097 198.022 43.7325 200.468 43.7325Z" fill="#DD6F31"/>
<path d="M152.078 84.367C154.525 84.367 156.508 82.4441 156.508 80.0723C156.508 77.7004 154.525 75.7775 152.078 75.7775C149.631 75.7775 147.648 77.7004 147.648 80.0723C147.648 82.4441 149.631 84.367 152.078 84.367Z" fill="#DD6F31"/>
<path d="M200.468 125.001C202.915 125.001 204.899 123.079 204.899 120.707C204.899 118.335 202.915 116.412 200.468 116.412C198.022 116.412 196.038 118.335 196.038 120.707C196.038 123.079 198.022 125.001 200.468 125.001Z" fill="#DD6F31"/>
<path d="M249.2 84.367C251.646 84.367 253.63 82.4441 253.63 80.0723C253.63 77.7004 251.646 75.7775 249.2 75.7775C246.753 75.7775 244.77 77.7004 244.77 80.0723C244.77 82.4441 246.753 84.367 249.2 84.367Z" fill="#3F3D56"/>
<path d="M296.568 84.367C299.014 84.367 300.998 82.4441 300.998 80.0723C300.998 77.7004 299.014 75.7775 296.568 75.7775C294.121 75.7775 292.138 77.7004 292.138 80.0723C292.138 82.4441 294.121 84.367 296.568 84.367Z" fill="#3F3D56"/>
<path d="M152.078 125.001C154.525 125.001 156.508 123.079 156.508 120.707C156.508 118.335 154.525 116.412 152.078 116.412C149.631 116.412 147.648 118.335 147.648 120.707C147.648 123.079 149.631 125.001 152.078 125.001Z" fill="#3F3D56"/>
<path d="M35.9236 161.726C40.4679 161.726 44.1518 158.155 44.1518 153.75C44.1518 149.344 40.4679 145.773 35.9236 145.773C31.3792 145.773 27.6953 149.344 27.6953 153.75C27.6953 158.155 31.3792 161.726 35.9236 161.726Z" fill="#FFB8B8"/>
<path d="M32.9527 200.95C32.8491 200.95 32.745 200.945 32.6404 200.936C32.1229 200.894 31.6204 200.747 31.1658 200.504C30.7111 200.26 30.3147 199.927 30.0023 199.525C29.69 199.122 29.4688 198.661 29.3533 198.17C29.2378 197.679 29.2306 197.17 29.3322 196.676C29.3562 196.562 29.3864 196.448 29.4227 196.337L17.2784 182.413C16.8827 181.955 16.6496 181.387 16.6138 180.791C16.5779 180.195 16.7411 179.604 17.0793 179.105L17.1013 179.079L28.0326 168.63C28.6295 168.06 29.4353 167.743 30.2729 167.75C31.1105 167.756 31.9114 168.084 32.4996 168.662C33.0877 169.24 33.4149 170.021 33.4093 170.833C33.4037 171.645 33.0657 172.422 32.4696 172.992C32.4559 173.006 32.4421 173.019 32.4281 173.031L24.511 180.328L33.1783 193.814C33.3425 193.822 33.5058 193.842 33.6672 193.872C34.5637 194.046 35.3618 194.536 35.9064 195.248C36.451 195.96 36.7033 196.842 36.6142 197.724C36.5252 198.606 36.1012 199.425 35.4246 200.021C34.7479 200.617 33.867 200.948 32.9527 200.95Z" fill="#FFB8B8"/>
<path d="M49.4753 264.766H53.5828L55.5365 249.408L49.4746 249.409L49.4753 264.766Z" fill="#FFB8B8"/>
<path d="M48.428 263.466L56.5165 263.466C57.1934 263.466 57.864 263.595 58.4893 263.846C59.1147 264.097 59.683 264.465 60.1616 264.929C60.6403 265.393 61.02 265.944 61.279 266.551C61.5381 267.157 61.6714 267.807 61.6715 268.463V268.625L48.4282 268.626L48.428 263.466Z" fill="#2F2E41"/>
<path d="M8.65234 259.261L12.1813 261.298L21.9654 249.072L16.7568 246.065L8.65234 259.261Z" fill="#FFB8B8"/>
<path d="M8.43833 257.625L15.3882 261.636C16.5628 262.314 17.4118 263.417 17.7479 264.701C18.0839 265.986 17.8798 267.347 17.1804 268.486L17.0946 268.626L5.71558 262.058L8.43833 257.625Z" fill="#2F2E41"/>
<path d="M54.5518 259.342H49.9527C49.5803 259.342 49.2209 259.209 48.944 258.968C48.6671 258.726 48.4924 258.394 48.4536 258.035L43.817 215.783C43.8053 215.676 43.7578 215.577 43.6819 215.499C43.606 215.422 43.5058 215.37 43.3969 215.353C43.288 215.336 43.1763 215.355 43.0791 215.405C42.982 215.456 42.9047 215.536 42.8593 215.634L34.4947 233.589L19.6858 256.999C19.4941 257.299 19.1973 257.522 18.8498 257.627C18.5023 257.733 18.1273 257.713 17.7935 257.572L11.8774 255.049C11.6818 254.966 11.5067 254.843 11.3638 254.689C11.2209 254.535 11.1134 254.353 11.0484 254.155C10.9834 253.958 10.9625 253.749 10.987 253.544C11.0114 253.338 11.0808 253.139 11.1904 252.961L24.8039 230.864L28.979 212.245C27.6659 204.171 33.2953 192.166 33.3524 192.046L33.3802 191.987L48.8866 186.112L48.9644 186.204C55.0796 205.659 58.806 226.595 56.0546 258.003C56.0206 258.367 55.8479 258.706 55.5701 258.954C55.2922 259.201 54.9292 259.34 54.5518 259.342Z" fill="#2F2E41"/>
<path d="M32.7557 193.955L32.6835 193.807C32.649 193.737 29.201 186.687 26.5431 179.152C26.0323 177.695 25.8392 176.151 25.976 174.618C26.1129 173.085 26.5767 171.596 27.338 170.245C28.1093 168.881 29.1645 167.687 30.4367 166.739C31.7089 165.79 33.1704 165.108 34.7286 164.736C37.4337 164.108 40.2818 164.442 42.7539 165.679C45.226 166.915 47.1576 168.971 48.1968 171.473C50.3051 176.584 49.6331 182.039 49.0008 186.33L48.9882 186.416L48.9076 186.453L32.7557 193.955Z" fill="#DD6F31"/>
<path d="M45.9002 149.244H32.8347V143.723C35.7024 142.618 38.5087 141.679 40.205 143.723C41.7155 143.723 43.1641 144.304 44.2321 145.34C45.3002 146.375 45.9002 147.779 45.9002 149.244Z" fill="#2F2E41"/>
<path d="M32.1113 142.748C24.3005 142.748 22.1143 152.24 22.1143 157.594C22.1143 160.58 23.5073 161.648 25.6964 162.01L26.4694 158.013L28.2801 162.182C28.895 162.185 29.541 162.173 30.2107 162.161L30.8246 160.936L32.1936 162.139C37.6766 162.147 42.1082 162.922 42.1082 157.594C42.1082 152.24 40.1909 142.748 32.1113 142.748Z" fill="#2F2E41"/>
<path d="M66.8297 153.371C66.8793 153.459 66.9252 153.55 66.9673 153.643C67.1775 154.103 67.285 154.601 67.2828 155.105C67.2805 155.608 67.1685 156.106 66.9542 156.564C66.7399 157.023 66.428 157.432 66.0391 157.766C65.6502 158.099 65.1929 158.349 64.6973 158.5C64.582 158.534 64.4648 158.563 64.3464 158.586L57.5642 175.593C57.34 176.149 56.9369 176.62 56.4147 176.936C55.8925 177.252 55.2791 177.397 54.6654 177.348L54.6313 177.342L39.9314 173.052C39.1289 172.818 38.4553 172.284 38.0588 171.568C37.6622 170.853 37.5752 170.013 37.8168 169.236C38.0585 168.458 38.609 167.805 39.3473 167.42C40.0855 167.036 40.9511 166.951 41.7536 167.186C41.7719 167.191 41.7902 167.196 41.8085 167.202L52.2095 170.439L60.2619 156.6C60.1907 156.456 60.13 156.308 60.0803 156.156C59.8075 155.31 59.8688 154.396 60.2521 153.592C60.6354 152.787 61.3135 152.149 62.1546 151.802C62.9958 151.455 63.94 151.423 64.8039 151.713C65.6679 152.003 66.3898 152.594 66.8297 153.371Z" fill="#FFB8B8"/>
<path d="M68.5344 269H0.3551C0.260922 269 0.1706 268.964 0.104006 268.899C0.037412 268.835 0 268.747 0 268.656C0 268.564 0.037412 268.477 0.104006 268.412C0.1706 268.348 0.260922 268.312 0.3551 268.312H68.5344C68.6286 268.312 68.7189 268.348 68.7855 268.412C68.8521 268.477 68.8895 268.564 68.8895 268.656C68.8895 268.747 68.8521 268.835 68.7855 268.899C68.7189 268.964 68.6286 269 68.5344 269Z" fill="#CCCCCC"/>
</g>
<defs>
<clipPath id="clip0_81_6591">
<rect width="345" height="269" fill="white"/>
</clipPath>
</defs>
</svg>
