<svg width="23" height="23" viewBox="0 0 23 23" fill="none" xmlns="http://www.w3.org/2000/svg">
<path d="M7.5 5.5C7.5 4.37283 7.94777 3.29183 8.7448 2.4948C9.54183 1.69777 10.6228 1.25 11.75 1.25C12.8772 1.25 13.9582 1.69777 14.7552 2.4948C15.5522 3.29183 16 4.37283 16 5.5C16 6.62717 15.5522 7.70817 14.7552 8.5052C13.9582 9.30223 12.8772 9.75 11.75 9.75C10.6228 9.75 9.54183 9.30223 8.7448 8.5052C7.94777 7.70817 7.5 6.62717 7.5 5.5ZM2.86091 15.3609C3.89236 14.3295 5.29131 13.75 6.75 13.75H16.75C18.2087 13.75 19.6076 14.3295 20.6391 15.3609C21.6705 16.3924 22.25 17.7913 22.25 19.25C22.25 20.0457 21.9339 20.8087 21.3713 21.3713C20.8087 21.9339 20.0457 22.25 19.25 22.25H4.25C3.45435 22.25 2.69129 21.9339 2.12868 21.3713C1.56607 20.8087 1.25 20.0457 1.25 19.25C1.25 17.7913 1.82946 16.3924 2.86091 15.3609Z" stroke="#9DB2CE" stroke-width="1.5"/>
</svg>
