<svg width="23" height="23" viewBox="0 0 23 23" fill="none" xmlns="http://www.w3.org/2000/svg">
<path d="M7 5C7 3.87283 7.44777 2.79183 8.2448 1.9948L7.71447 1.46447L8.2448 1.9948C9.04183 1.19777 10.1228 0.75 11.25 0.75C12.3772 0.75 13.4582 1.19777 14.2552 1.9948L14.7726 1.4774L14.2552 1.9948C15.0522 2.79183 15.5 3.87283 15.5 5C15.5 6.12717 15.0522 7.20817 14.2552 8.0052C13.4582 8.80223 12.3772 9.25 11.25 9.25C10.1228 9.25 9.04183 8.80223 8.2448 8.0052C7.44777 7.20817 7 6.12717 7 5ZM2.36091 14.8609C3.39236 13.8295 4.79131 13.25 6.25 13.25H16.25C17.7087 13.25 19.1076 13.8295 20.1391 14.8609C21.1705 15.8924 21.75 17.2913 21.75 18.75C21.75 19.5457 21.4339 20.3087 20.8713 20.8713C20.3087 21.4339 19.5457 21.75 18.75 21.75H3.75C2.95435 21.75 2.19129 21.4339 1.62868 20.8713C1.06607 20.3087 0.75 19.5457 0.75 18.75C0.75 17.2913 1.32946 15.8924 2.36091 14.8609Z" fill="#DD6F31" stroke="#DD6F31" stroke-width="1.5"/>
</svg>
