<svg width="24" height="24" viewBox="0 0 24 24" fill="none" xmlns="http://www.w3.org/2000/svg">
<path d="M12 22.5C17.799 22.5 22.5 17.799 22.5 12C22.5 6.20101 17.799 1.5 12 1.5C6.20101 1.5 1.5 6.20101 1.5 12C1.5 17.799 6.20101 22.5 12 22.5Z" fill="#27A4DB"/>
<path d="M10.0748 16.8125C9.73464 16.8125 9.79244 16.6841 9.67512 16.3602L8.6748 13.068L16.3748 8.50003" fill="#C8DAEA"/>
<path d="M10.0752 16.8125C10.3377 16.8125 10.4537 16.6925 10.6002 16.55L12.0002 15.1887L10.2539 14.1356" fill="#A9C9DD"/>
<path d="M10.2534 14.1359L14.4849 17.2622C14.9678 17.5286 15.3163 17.3906 15.4365 16.8138L17.159 8.69709C17.3353 7.99007 16.8895 7.6694 16.4275 7.87912L6.3134 11.7791C5.62301 12.056 5.62704 12.4412 6.18755 12.6128L8.78307 13.4229L14.792 9.63195C15.0756 9.45993 15.336 9.55241 15.1223 9.74206" fill="url(#paint0_linear_239_505)"/>
<defs>
<linearGradient id="paint0_linear_239_505" x1="11.2261" y1="12.9169" x2="12.8693" y2="16.656" gradientUnits="userSpaceOnUse">
<stop stop-color="#EFF7FC"/>
<stop offset="1" stop-color="white"/>
</linearGradient>
</defs>
</svg>
